<svg viewBox="0 0 579 484" fill="none" xmlns="http://www.w3.org/2000/svg">
    <path d="M61.2266 311L0 322.189L14.4059 400.8L75.6325 389.611L61.2266 311Z" fill="#E6E6E6"/>
    <path d="M55.8047 326.553L10.5862 334.817L11.1298 337.783L56.3483 329.52L55.8047 326.553Z" fill="white"/>
    <path d="M57.2545 334.464L12.0359 342.728L12.5795 345.694L57.7981 337.43L57.2545 334.464Z" fill="white"/>
    <path d="M58.7041 342.374L13.4856 350.638L14.0292 353.605L59.2477 345.341L58.7041 342.374Z" fill="white"/>
    <path d="M60.1538 350.285L14.9353 358.548L15.4789 361.515L60.6974 353.251L60.1538 350.285Z" fill="white"/>
    <path d="M61.6035 358.195L16.385 366.459L16.9286 369.426L62.1472 361.162L61.6035 358.195Z" fill="white"/>
    <path d="M63.053 366.106L17.8345 374.37L18.3781 377.336L63.5966 369.072L63.053 366.106Z" fill="white"/>
    <path d="M64.5027 374.016L19.2842 382.28L19.8278 385.246L65.0464 376.983L64.5027 374.016Z" fill="white"/>
    <path d="M283.133 36.6395C275.144 36.6485 267.485 39.8218 261.836 45.463C256.187 51.1043 253.009 58.7528 253 66.7307V413.4C253.009 421.378 256.187 429.026 261.836 434.667C267.485 440.308 275.144 443.481 283.133 443.491H537.793C545.782 443.481 553.441 440.308 559.09 434.667C564.739 429.026 567.917 421.377 567.926 413.4V66.7307C567.917 58.7528 564.739 51.1043 559.09 45.4631C553.441 39.8219 545.782 36.6486 537.793 36.6395H283.133Z" fill="#434144"/>
    <path d="M552.256 58.0125H268.67V422.118H552.256V58.0125Z" fill="white"/>
    <path d="M287.818 63.3455C286.221 63.3473 284.689 63.9817 283.56 65.1095C282.431 66.2373 281.795 67.7663 281.793 69.3612V403.57C281.795 405.165 282.431 406.694 283.56 407.822C284.689 408.95 286.221 409.584 287.818 409.586H535.49C537.087 409.584 538.619 408.95 539.748 407.822C540.877 406.694 541.513 405.165 541.514 403.57V69.3612C541.513 67.7663 540.877 66.2372 539.748 65.1094C538.619 63.9816 537.087 63.3473 535.49 63.3455H287.818Z" fill="#E6E6E6"/>
    <path d="M295.134 72.7033C293.524 72.7306 291.991 73.3941 290.87 74.5483C289.75 75.7026 289.134 77.2535 289.156 78.8608V396.744C289.134 398.352 289.75 399.902 290.87 401.057C291.991 402.211 293.524 402.874 295.134 402.902H527.504C529.114 402.874 530.647 402.211 531.767 401.057C532.888 399.902 533.504 398.352 533.482 396.744V78.8608C533.504 77.2535 532.888 75.7026 531.767 74.5483C530.647 73.3941 529.114 72.7306 527.504 72.7033H295.134Z" fill="white"/>
    <path d="M331.495 118.946C330.786 118.947 330.105 119.229 329.603 119.73C329.101 120.231 328.819 120.911 328.818 121.62V133.891C328.819 134.6 329.101 135.28 329.603 135.781C330.105 136.282 330.786 136.564 331.495 136.565H489.47C490.18 136.564 490.861 136.282 491.362 135.781C491.864 135.28 492.147 134.6 492.148 133.891V121.62C492.147 120.911 491.864 120.231 491.362 119.73C490.861 119.229 490.18 118.947 489.47 118.946H331.495Z" fill="#BFBADA"/>
    <path d="M330.491 159.557C330.314 159.557 330.144 159.628 330.018 159.753C329.893 159.878 329.822 160.048 329.822 160.225V165.016C329.822 165.193 329.893 165.363 330.018 165.488C330.144 165.613 330.314 165.684 330.491 165.684H491.143C491.321 165.684 491.491 165.614 491.616 165.488C491.742 165.363 491.813 165.193 491.813 165.016V160.225C491.813 160.048 491.742 159.878 491.616 159.753C491.491 159.627 491.321 159.557 491.143 159.557H330.491Z" fill="#CCCCCC"/>
    <path d="M330.491 175.128C330.314 175.128 330.144 175.198 330.018 175.324C329.893 175.449 329.822 175.619 329.822 175.796V180.587C329.822 180.764 329.893 180.934 330.018 181.059C330.144 181.184 330.314 181.255 330.491 181.255H491.143C491.321 181.255 491.491 181.184 491.616 181.059C491.742 180.934 491.813 180.764 491.813 180.587V175.796C491.813 175.619 491.742 175.449 491.616 175.324C491.491 175.198 491.321 175.128 491.143 175.128H330.491Z" fill="#CCCCCC"/>
    <path d="M330.491 190.698C330.314 190.699 330.144 190.769 330.018 190.894C329.893 191.02 329.822 191.19 329.822 191.367V196.157C329.822 196.334 329.893 196.504 330.018 196.629C330.144 196.755 330.314 196.825 330.491 196.825H491.143C491.321 196.825 491.491 196.755 491.616 196.629C491.742 196.504 491.813 196.334 491.813 196.157V191.367C491.813 191.19 491.742 191.02 491.616 190.894C491.491 190.769 491.321 190.698 491.143 190.698H330.491Z" fill="#CCCCCC"/>
    <path d="M330.156 221.801C329.979 221.801 329.809 221.872 329.683 221.997C329.558 222.123 329.487 222.292 329.487 222.47V227.26C329.487 227.437 329.558 227.607 329.683 227.732C329.809 227.858 329.979 227.928 330.156 227.928H490.809C490.986 227.928 491.156 227.858 491.282 227.732C491.407 227.607 491.478 227.437 491.478 227.26V222.47C491.478 222.292 491.407 222.122 491.282 221.997C491.156 221.872 490.986 221.801 490.809 221.801H330.156Z" fill="#CCCCCC"/>
    <path d="M330.156 237.372C329.979 237.372 329.809 237.443 329.683 237.568C329.558 237.693 329.487 237.863 329.487 238.04V242.831C329.487 243.008 329.558 243.178 329.683 243.303C329.809 243.428 329.979 243.499 330.156 243.499H490.809C490.986 243.499 491.156 243.428 491.282 243.303C491.407 243.178 491.478 243.008 491.478 242.831V238.04C491.478 237.863 491.407 237.693 491.282 237.568C491.156 237.443 490.986 237.372 490.809 237.372H330.156Z" fill="#CCCCCC"/>
    <path d="M330.156 252.942C329.979 252.943 329.809 253.013 329.683 253.138C329.558 253.264 329.487 253.434 329.487 253.611V258.401C329.487 258.579 329.558 258.749 329.683 258.874C329.809 258.999 329.979 259.07 330.156 259.07H490.809C490.986 259.07 491.156 258.999 491.282 258.874C491.407 258.749 491.478 258.579 491.478 258.401V253.611C491.478 253.434 491.407 253.264 491.282 253.138C491.156 253.013 490.986 252.943 490.809 252.942H330.156Z" fill="#CCCCCC"/>
    <path d="M330.156 268.59C329.979 268.59 329.809 268.661 329.683 268.786C329.558 268.911 329.487 269.081 329.487 269.259V274.049C329.487 274.226 329.558 274.396 329.683 274.522C329.809 274.647 329.979 274.717 330.156 274.717H490.809C490.986 274.717 491.156 274.647 491.282 274.522C491.407 274.396 491.478 274.226 491.478 274.049V269.259C491.478 269.081 491.407 268.911 491.282 268.786C491.156 268.661 490.986 268.59 490.809 268.59H330.156Z" fill="#CCCCCC"/>
    <path d="M330.156 284.161C329.979 284.161 329.809 284.232 329.683 284.357C329.558 284.482 329.487 284.652 329.487 284.829V289.62C329.487 289.797 329.558 289.967 329.683 290.092C329.809 290.218 329.979 290.288 330.156 290.288H490.809C490.986 290.288 491.156 290.218 491.282 290.092C491.407 289.967 491.478 289.797 491.478 289.62V284.829C491.478 284.652 491.407 284.482 491.282 284.357C491.156 284.231 490.986 284.161 490.809 284.161H330.156Z" fill="#CCCCCC"/>
    <path d="M330.156 299.732C329.979 299.732 329.809 299.802 329.683 299.928C329.558 300.053 329.487 300.223 329.487 300.4V305.191C329.487 305.368 329.558 305.538 329.683 305.663C329.809 305.788 329.979 305.859 330.156 305.859H490.809C490.986 305.859 491.156 305.788 491.282 305.663C491.407 305.538 491.478 305.368 491.478 305.191V300.4C491.478 300.223 491.407 300.053 491.282 299.928C491.156 299.802 490.986 299.732 490.809 299.732H330.156Z" fill="#CCCCCC"/>
    <path d="M330.156 315.379C329.979 315.38 329.809 315.45 329.683 315.575C329.558 315.701 329.487 315.871 329.487 316.048V320.838C329.487 321.016 329.558 321.186 329.683 321.311C329.809 321.436 329.979 321.507 330.156 321.507H490.809C490.986 321.507 491.156 321.436 491.282 321.311C491.407 321.186 491.478 321.016 491.478 320.838V316.048C491.478 315.871 491.407 315.701 491.282 315.575C491.156 315.45 490.986 315.38 490.809 315.379H330.156Z" fill="#CCCCCC"/>
    <path d="M330.156 330.95C329.979 330.95 329.809 331.021 329.683 331.146C329.558 331.271 329.487 331.441 329.487 331.619V336.409C329.487 336.586 329.558 336.756 329.683 336.882C329.809 337.007 329.979 337.077 330.156 337.077H490.809C490.986 337.077 491.156 337.007 491.282 336.882C491.407 336.756 491.478 336.586 491.478 336.409V331.619C491.478 331.441 491.407 331.271 491.282 331.146C491.156 331.021 490.986 330.95 490.809 330.95H330.156Z" fill="#CCCCCC"/>
    <path d="M330.156 346.521C329.979 346.521 329.809 346.592 329.683 346.717C329.558 346.842 329.487 347.012 329.487 347.189V351.98C329.487 352.157 329.558 352.327 329.683 352.452C329.809 352.578 329.979 352.648 330.156 352.648H490.809C490.986 352.648 491.156 352.578 491.282 352.452C491.407 352.327 491.478 352.157 491.478 351.98V347.189C491.478 347.012 491.407 346.842 491.282 346.717C491.156 346.591 490.986 346.521 490.809 346.521H330.156Z" fill="#CCCCCC"/>
    <path d="M530.135 437.659C557.122 437.659 579 415.813 579 388.865C579 361.916 557.122 340.07 530.135 340.07C503.148 340.07 481.27 361.916 481.27 388.865C481.27 415.813 503.148 437.659 530.135 437.659Z" fill="#75C9C8"/>
    <path d="M525.478 409.462L510.852 390.685L519.357 384.078L526.283 392.97L549.677 368.31L557.5 375.71L525.478 409.462Z" fill="white"/>
    <path d="M331.199 377.574C334.699 375.195 338.296 372.72 342.452 371.639C346.244 370.652 350.599 370.913 353.598 373.671C356.018 375.897 357.04 379.319 355.247 382.247C354.862 382.915 354.339 383.495 353.713 383.947C353.086 384.4 352.371 384.716 351.612 384.874C350.88 384.97 350.135 384.88 349.446 384.613C348.758 384.346 348.149 383.91 347.676 383.346C346.736 382.314 346.173 380.789 346.673 379.428C347.198 377.997 348.604 377.122 349.984 376.634C351.591 376.129 353.246 375.789 354.923 375.621L361.791 374.687L389.903 370.864L421.209 366.606C421.457 366.537 421.667 366.373 421.793 366.151C421.92 365.929 421.954 365.666 421.888 365.419C421.814 365.176 421.648 364.971 421.426 364.845C421.203 364.72 420.941 364.684 420.693 364.746L358.4 373.217C356.146 373.523 353.861 373.743 351.632 374.193C349.876 374.475 348.212 375.162 346.772 376.198C343.788 378.545 344.001 382.696 346.747 385.151C349.527 387.637 353.558 387.209 355.997 384.464C357.231 383.074 357.963 381.316 358.078 379.468C358.193 377.619 357.685 375.784 356.633 374.255C353.97 370.266 349.118 368.733 344.481 369.299C339.119 369.953 334.573 372.947 330.218 375.908C329.193 376.605 330.163 378.278 331.199 377.574Z" fill="#434144"/>
    <path d="M462.97 19.0831H437.981V13.9742C437.981 10.268 436.506 6.71362 433.882 4.09295C431.258 1.47228 427.698 0 423.987 0H396.939C393.227 3.3313e-06 389.668 1.47228 387.044 4.09296C384.419 6.71363 382.945 10.268 382.945 13.9742V19.0831H357.955C356.117 19.0831 354.298 19.4445 352.6 20.1468C350.902 20.8491 349.359 21.8784 348.06 23.176C346.761 24.4736 345.73 26.0142 345.027 27.7096C344.323 29.405 343.961 31.2222 343.961 33.0573V71.7523H476.964V33.0573C476.964 31.2222 476.602 29.405 475.899 27.7096C475.196 26.0142 474.165 24.4736 472.865 23.176C471.566 21.8784 470.023 20.8491 468.326 20.1468C466.628 19.4445 464.808 19.0831 462.97 19.0831Z" fill="#434144"/>
    <g clip-path="url(#clip0)">
        <path d="M70.0804 305.786C69.5488 307.31 64.3907 314.448 62.4553 317.605C60.5199 320.761 57.2722 330.048 60.1212 331.572C62.9703 333.096 67.7464 331.98 69.2581 327.091C70.7699 322.202 75.9031 311.183 77.6973 308.768C79.4914 306.352 70.0804 305.786 70.0804 305.786Z" fill="#F8CDBA"/>
        <path d="M263.724 160.729C266.224 158.347 286.467 137 286.666 137C288.552 137.458 289.789 138.374 288.419 140.332C287.887 141.09 284.681 144.646 280.943 148.661C282.061 149.605 282.862 150.872 283.237 152.289C283.613 153.705 283.545 155.203 283.042 156.58C282.54 157.957 281.628 159.145 280.429 159.984C279.23 160.823 277.803 161.272 276.341 161.271C275.761 161.265 275.184 161.189 274.622 161.046L271.407 164.869L266.631 162.92L267.271 162.212L263.724 160.729Z" fill="#F8CDBA"/>
        <path d="M232.227 407.874C232.168 408.94 230.258 417.693 231.105 418.793C232.642 420.792 245.924 420.625 246.58 420.034C247.236 419.442 247.676 418.16 247.145 417.76C246.613 417.36 241.397 416.003 240.716 415.47C240.034 414.936 239.179 412.246 239.627 410.847" fill="#434144"/>
        <path d="M140.177 282.248C134.363 286.346 76.2189 458.697 77.1658 461.429C78.1127 464.161 84.7411 465.676 87.1333 464.161C89.5255 462.645 134.687 380.63 137.112 378.198C139.537 375.766 174.98 338.718 179.823 324.134C184.665 309.551 140.177 282.248 140.177 282.248Z" fill="#434144"/>
        <path d="M148.276 272.453C144.596 274.386 133.906 284.947 133.906 296.183C133.906 327.924 162.978 334.329 173.344 334.146C183.71 333.963 226.545 335.753 242.759 330.281C242.061 336.436 236.621 391.974 231.537 408.148C232.767 410.431 239.163 412.446 240.309 411.48C249.512 403.984 276.665 324.792 276.142 319.229C274.962 306.669 155.012 274.086 148.276 272.453Z" fill="#88C7C7"/>
        <path d="M183.577 217.241C184.1 219.523 171.591 222.613 171.018 220.156L167.48 204.848L180.039 201.966L183.577 217.241Z" fill="#F8CDBA"/>
        <path d="M169.598 213.993C169.282 212.627 171.3 207.213 173.875 207.454C170.686 207.088 168.393 203.865 167.479 204.848L169.598 213.993Z" fill="black"/>
        <path d="M176.741 207.696C167.493 207.696 159.996 200.178 159.996 190.905C159.996 181.631 167.493 174.114 176.741 174.114C185.989 174.114 193.486 181.631 193.486 190.905C193.486 200.178 185.989 207.696 176.741 207.696Z" fill="#F8CDBA"/>
        <path d="M191.022 189.899C190.84 189.114 191.911 188.196 193.412 187.847C194.914 187.498 196.278 187.851 196.459 188.635C196.641 189.419 195.57 190.338 194.069 190.687C192.567 191.036 191.203 190.683 191.022 189.899Z" fill="#FA9E9F"/>
        <path d="M173.921 193.871C173.739 193.086 174.81 192.168 176.311 191.819C177.813 191.47 179.177 191.823 179.358 192.607C179.54 193.391 178.469 194.31 176.968 194.659C175.466 195.008 174.102 194.655 173.921 193.871Z" fill="#FA9E9F"/>
        <path d="M186.418 187.865C187.099 188.473 190.413 190.922 187.946 192.804" stroke="#434144" stroke-width="0.69" stroke-miterlimit="10" stroke-linecap="round"/>
        <path d="M183.286 197.651C182.456 197.81 180.969 197.11 180.088 196.352" stroke="#434144" stroke-width="0.69" stroke-miterlimit="10" stroke-linecap="round"/>
        <path d="M168.559 188.398C168.518 184.608 181.766 175.863 188.146 178.586C185.195 175.864 181.368 174.294 177.361 174.161C173.353 174.029 169.432 175.342 166.308 177.863C163.185 180.384 161.067 183.945 160.34 187.899C159.613 191.852 160.325 195.937 162.346 199.409C164.14 197.801 168.559 191.971 168.559 188.398Z" fill="black"/>
        <path d="M165.087 196.427C163.051 196.427 161.399 194.771 161.399 192.729C161.399 190.686 163.051 189.031 165.087 189.031C167.124 189.031 168.775 190.686 168.775 192.729C168.775 194.771 167.124 196.427 165.087 196.427Z" fill="#F8CDBA"/>
        <path d="M265.07 159.488C263.292 161.054 228.024 196.019 222.068 197.468C202 202.349 137.062 221.847 114.918 239.696C91.7931 253.972 67.2398 304.27 68.1286 306.052C69.0173 307.835 78.827 312.082 80.8288 311.191C82.8307 310.3 110.241 272.254 114.477 269.83C118.714 267.406 151.681 251.09 151.681 251.09C150.128 254.888 145.667 270.979 146.34 273.211C147.013 275.443 161.375 285.13 187.556 287.512C190.23 285.946 198.03 240.595 198.03 240.595C203.604 238.097 240.483 218.415 248.607 208.196C251.755 204.231 275.569 167.534 275.569 165.718C275.569 163.902 265.07 159.488 265.07 159.488Z" fill="#4E73B6"/>
        <path d="M180.612 249.324C182.929 248.374 197.889 240.554 197.889 240.554" stroke="#434144" stroke-width="0.55" stroke-miterlimit="10" stroke-linecap="round"/>
        <path d="M167.039 215.134C165.461 217.058 154.281 240.279 151.681 251.373" stroke="#434144" stroke-width="0.55" stroke-miterlimit="10" stroke-linecap="round"/>
        <path d="M78.42 461.262C77.5146 462.095 75.3217 465.785 75.2137 467.159C74.6738 473.739 81.7757 483.992 82.922 484C86.2445 484 87.9639 482.234 87.9639 480.169C87.9639 478.103 85.472 475.579 85.472 474.197C85.472 472.814 85.7793 464.552 86.0119 463.328" fill="#434144"/>
    </g>
    <defs>
        <clipPath id="clip0">
            <rect width="230" height="347" fill="white" transform="matrix(-1 0 0 1 289 137)"/>
        </clipPath>
    </defs>
</svg>
