<svg width="416" height="232" viewBox="0 0 416 232" fill="none" xmlns="http://www.w3.org/2000/svg">
<g clip-path="url(#clip0)">
<mask id="mask0" mask-type="alpha" maskUnits="userSpaceOnUse" x="56" y="55" width="103" height="117">
<path d="M155.035 82.8434C153.985 82.8434 152.977 83.2606 152.234 84.0032C151.491 84.7457 151.074 85.7529 151.074 86.8031V86.8031V113.301H135.227V150.82C135.227 151.87 135.644 152.877 136.387 153.619C137.13 154.362 138.138 154.779 139.188 154.779C140.239 154.779 141.247 154.362 141.99 153.619C142.733 152.877 143.15 151.87 143.15 150.82V150.82V121.22H151.074V141.661C151.074 142.711 151.491 143.719 152.234 144.461C152.977 145.204 153.985 145.621 155.035 145.621C156.086 145.621 157.094 145.204 157.837 144.461C158.58 143.719 158.997 142.711 158.997 141.661V86.8031C158.997 85.7529 158.58 84.7457 157.837 84.0032C157.094 83.2606 156.086 82.8434 155.035 82.8434V82.8434Z" fill="#333333"/>
<path d="M143.15 77.6552C143.15 76.6051 142.733 75.5979 141.99 74.8553C141.247 74.1127 140.239 73.6956 139.188 73.6956C138.138 73.6956 137.13 74.1127 136.387 74.8553C135.644 75.5979 135.227 76.6051 135.227 77.6552C135.227 77.6552 135.227 77.6552 135.227 77.6552V105.395H143.15V77.6552Z" fill="#333333"/>
<path d="M127.296 67.7844C127.296 67.0685 127.011 66.382 126.505 65.8758C125.998 65.3696 125.311 65.0852 124.595 65.0852C123.879 65.0852 123.192 65.3696 122.685 65.8758C122.179 66.382 121.894 67.0685 121.894 67.7844L119.369 159.961C119.369 161.011 119.786 162.017 120.529 162.759C121.271 163.502 122.278 163.918 123.328 163.918C124.378 163.918 125.385 163.502 126.128 162.759C126.87 162.017 127.288 161.011 127.288 159.961V159.961V67.7844H127.296Z" fill="#333333"/>
<path d="M114.348 166.599C114.348 166.558 114.348 166.521 114.348 166.483L108.82 58.3969C108.787 57.6957 108.477 57.0363 107.958 56.5638C107.438 56.0912 106.752 55.8443 106.051 55.8772C105.703 55.8935 105.363 55.978 105.048 56.126C104.733 56.2739 104.451 56.4823 104.217 56.7393C103.744 57.2584 103.497 57.944 103.53 58.6452V166.599C103.53 168.031 104.099 169.404 105.112 170.416C106.125 171.429 107.499 171.997 108.931 171.997C110.363 171.997 111.737 171.429 112.75 170.416C113.763 169.404 114.332 168.031 114.332 166.599H114.348Z" fill="#333333"/>
<path d="M91.6463 64.5591C90.5956 64.5591 89.5879 64.9763 88.8449 65.7189C88.102 66.4614 87.6846 67.4686 87.6846 68.5188V159.959C87.6846 161.009 88.102 162.016 88.8449 162.759C89.5879 163.501 90.5956 163.919 91.6463 163.919C92.697 163.919 93.7047 163.501 94.4476 162.759C95.1906 162.016 95.608 161.009 95.608 159.959V68.5188C95.608 67.4686 95.1906 66.4614 94.4476 65.7189C93.7047 64.9763 92.697 64.5591 91.6463 64.5591V64.5591Z" fill="#333333"/>
<path d="M79.763 113.301H71.8449V150.819C71.8449 151.87 72.2623 152.877 73.0053 153.619C73.7483 154.362 74.756 154.779 75.8067 154.779C76.8574 154.779 77.8651 154.362 78.6081 153.619C79.351 152.877 79.7684 151.87 79.7684 150.819V113.301H79.763Z" fill="#333333"/>
<path d="M75.8067 73.6956C74.7559 73.6956 73.7483 74.1127 73.0053 74.8553C72.2623 75.5979 71.8449 76.6051 71.8449 77.6552V77.6552V105.395H79.763V77.666C79.7645 77.1456 79.6632 76.63 79.4651 76.1487C79.267 75.6674 78.9759 75.2298 78.6084 74.861C78.2409 74.4923 77.8044 74.1995 77.3236 73.9996C76.8429 73.7996 76.3274 73.6963 75.8067 73.6956V73.6956Z" fill="#333333"/>
<path d="M59.9617 145.613C60.482 145.613 60.9972 145.51 61.4778 145.311C61.9585 145.112 62.3952 144.821 62.7631 144.453C63.131 144.085 63.4228 143.649 63.6219 143.168C63.821 142.688 63.9235 142.173 63.9235 141.653V86.8031C63.9235 85.7529 63.5061 84.7457 62.7631 84.0032C62.0202 83.2606 61.0125 82.8434 59.9617 82.8434C58.911 82.8434 57.9033 83.2606 57.1604 84.0032C56.4174 84.7457 56 85.7529 56 86.8031V86.8031V141.661C56.0021 142.71 56.4205 143.715 57.1632 144.456C57.906 145.197 58.9124 145.613 59.9617 145.613V145.613Z" fill="#333333"/>
</mask>
<g mask="url(#mask0)">
<rect x="56" y="56" width="102.892" height="116.065" fill="url(#paint0_linear)"/>
</g>
</g>
<path d="M194.744 93.384C193.08 93.384 191.597 93.064 190.296 92.424C189.016 91.7627 187.992 90.8773 187.224 89.768C186.456 88.6587 185.88 87.432 185.496 86.088C185.112 84.744 184.92 83.3147 184.92 81.8C184.92 80.6907 185.037 79.592 185.272 78.504C185.528 77.416 185.923 76.3707 186.456 75.368C186.989 74.3653 187.629 73.4907 188.376 72.744C189.123 71.976 190.04 71.368 191.128 70.92C192.237 70.4507 193.443 70.216 194.744 70.216C196.707 70.216 198.285 70.6213 199.48 71.432C200.675 72.2213 201.709 73.32 202.584 74.728L199.16 76.68C197.923 74.8453 196.451 73.928 194.744 73.928C193.677 73.928 192.739 74.1733 191.928 74.664C191.139 75.1333 190.531 75.7733 190.104 76.584C189.677 77.3733 189.368 78.2053 189.176 79.08C188.984 79.9547 188.888 80.8613 188.888 81.8C188.888 84.0187 189.379 85.8853 190.36 87.4C191.341 88.9147 192.803 89.672 194.744 89.672C195.981 89.672 197.005 89.2667 197.816 88.456C198.648 87.6453 199.064 86.6533 199.064 85.48V85.128H195.128V81.512H202.968V84.616C202.968 87.368 202.2 89.5227 200.664 91.08C199.128 92.616 197.155 93.384 194.744 93.384ZM213.261 93.384C210.957 93.384 209.133 92.6267 207.789 91.112C206.445 89.5973 205.773 87.5067 205.773 84.84C205.773 82.1733 206.445 80.0827 207.789 78.568C209.133 77.032 210.957 76.264 213.261 76.264C215.565 76.264 217.389 77.032 218.733 78.568C220.098 80.0827 220.781 82.1733 220.781 84.84C220.781 87.5067 220.109 89.5973 218.765 91.112C217.421 92.6267 215.586 93.384 213.261 93.384ZM213.261 89.8C214.434 89.8 215.351 89.3627 216.013 88.488C216.695 87.6133 217.037 86.3973 217.037 84.84C217.037 83.2827 216.695 82.056 216.013 81.16C215.351 80.264 214.434 79.816 213.261 79.816C212.13 79.816 211.223 80.2747 210.541 81.192C209.858 82.088 209.517 83.304 209.517 84.84C209.517 86.376 209.847 87.592 210.509 88.488C211.191 89.3627 212.109 89.8 213.261 89.8ZM228.379 93L222.395 76.648H226.203L229.819 86.856C230.075 87.7093 230.224 88.2 230.267 88.328C230.395 87.7733 230.544 87.2827 230.715 86.856L234.267 76.648H238.075L232.091 93H228.379ZM247.232 93.384C244.907 93.384 243.061 92.6267 241.696 91.112C240.352 89.576 239.68 87.4747 239.68 84.808C239.68 82.1627 240.363 80.0827 241.728 78.568C243.093 77.032 244.928 76.264 247.232 76.264C249.323 76.264 251.029 76.9147 252.352 78.216C253.696 79.5173 254.368 81.4267 254.368 83.944C254.368 84.8187 254.325 85.5867 254.24 86.248H243.392C243.456 87.4 243.851 88.328 244.576 89.032C245.323 89.736 246.208 90.088 247.232 90.088C248.683 90.088 249.835 89.5227 250.688 88.392L253.056 90.824C251.627 92.5307 249.685 93.384 247.232 93.384ZM243.424 83.144H250.656C250.571 81.9707 250.208 81.0853 249.568 80.488C248.928 79.8693 248.149 79.56 247.232 79.56C246.165 79.56 245.28 79.8587 244.576 80.456C243.893 81.032 243.509 81.928 243.424 83.144ZM257.559 93V76.648H261.303V78.344C261.964 76.9573 263.084 76.264 264.663 76.264C265.815 76.264 266.828 76.6373 267.703 77.384L267.159 80.808C266.348 80.232 265.42 79.944 264.375 79.944C263.521 79.944 262.796 80.2427 262.199 80.84C261.601 81.4373 261.303 82.44 261.303 83.848V93H257.559ZM279.937 93V83.624C279.937 81.0853 278.924 79.816 276.897 79.816C274.678 79.816 273.569 81.064 273.569 83.56V93H269.825V76.648H273.569V78.184C274.636 76.904 276.076 76.264 277.889 76.264C279.596 76.264 280.982 76.7973 282.049 77.864C283.137 78.9307 283.681 80.6267 283.681 82.952V93H279.937ZM306.885 93V83.624C306.885 81.0853 305.957 79.816 304.101 79.816C303.141 79.816 302.384 80.1467 301.829 80.808C301.296 81.448 301.029 82.408 301.029 83.688V93H297.285V83.624C297.285 81.0853 296.357 79.816 294.501 79.816C293.541 79.816 292.784 80.1467 292.229 80.808C291.696 81.448 291.429 82.408 291.429 83.688V93H287.685V76.648H291.429V78.152C292.368 76.8933 293.701 76.264 295.429 76.264C297.434 76.264 298.864 77.032 299.717 78.568C300.762 77.032 302.405 76.264 304.645 76.264C306.48 76.264 307.93 76.776 308.997 77.8C310.085 78.8027 310.629 80.392 310.629 82.568V93H306.885ZM321.391 93.384C319.065 93.384 317.22 92.6267 315.855 91.112C314.511 89.576 313.839 87.4747 313.839 84.808C313.839 82.1627 314.521 80.0827 315.887 78.568C317.252 77.032 319.087 76.264 321.391 76.264C323.481 76.264 325.188 76.9147 326.511 78.216C327.855 79.5173 328.527 81.4267 328.527 83.944C328.527 84.8187 328.484 85.5867 328.399 86.248H317.551C317.615 87.4 318.009 88.328 318.735 89.032C319.481 89.736 320.367 90.088 321.391 90.088C322.841 90.088 323.993 89.5227 324.847 88.392L327.215 90.824C325.785 92.5307 323.844 93.384 321.391 93.384ZM317.583 83.144H324.815C324.729 81.9707 324.367 81.0853 323.727 80.488C323.087 79.8693 322.308 79.56 321.391 79.56C320.324 79.56 319.439 79.8587 318.735 80.456C318.052 81.032 317.668 81.928 317.583 83.144ZM341.83 93V83.624C341.83 81.0853 340.816 79.816 338.79 79.816C336.571 79.816 335.462 81.064 335.462 83.56V93H331.718V76.648H335.462V78.184C336.528 76.904 337.968 76.264 339.782 76.264C341.488 76.264 342.875 76.7973 343.942 77.864C345.03 78.9307 345.574 80.6267 345.574 82.952V93H341.83ZM354.378 93.384C351.839 93.384 350.57 91.9867 350.57 89.192V79.912H348.138V76.648H350.57V71.688L354.314 69.896V76.648H358.09V79.912H354.314V88.456C354.314 89.5013 354.772 90.024 355.69 90.024C356.522 90.024 357.375 89.7787 358.25 89.288L357.802 92.648C356.863 93.1387 355.722 93.384 354.378 93.384ZM185.72 102.6H192.632C194.147 102.6 195.523 102.813 196.76 103.24C197.997 103.667 199.021 104.232 199.832 104.936C200.643 105.64 201.315 106.483 201.848 107.464C202.403 108.424 202.797 109.437 203.032 110.504C203.288 111.549 203.416 112.648 203.416 113.8C203.416 114.867 203.299 115.912 203.064 116.936C202.851 117.96 202.467 118.973 201.912 119.976C201.379 120.957 200.707 121.821 199.896 122.568C199.085 123.293 198.04 123.88 196.76 124.328C195.501 124.776 194.083 125 192.504 125H185.72V102.6ZM193.048 121.384C194.179 121.384 195.171 121.16 196.024 120.712C196.899 120.264 197.571 119.667 198.04 118.92C198.531 118.152 198.883 117.341 199.096 116.488C199.331 115.635 199.448 114.739 199.448 113.8C199.448 111.709 198.936 109.928 197.912 108.456C196.888 106.963 195.384 106.216 193.4 106.216H189.56V121.384H193.048ZM210.592 105.768C210.165 106.195 209.642 106.408 209.024 106.408C208.405 106.408 207.872 106.195 207.424 105.768C206.997 105.32 206.784 104.787 206.784 104.168C206.784 103.549 206.997 103.027 207.424 102.6C207.872 102.173 208.405 101.96 209.024 101.96C209.642 101.96 210.165 102.173 210.592 102.6C211.018 103.027 211.232 103.549 211.232 104.168C211.232 104.787 211.018 105.32 210.592 105.768ZM207.136 125V108.648H210.88V125H207.136ZM220.753 131.4L218.769 128.392C221.009 128.243 222.556 127.891 223.41 127.336C224.284 126.803 224.721 125.971 224.721 124.84V123.912C223.825 124.893 222.588 125.384 221.009 125.384C219.004 125.384 217.372 124.648 216.113 123.176C214.876 121.683 214.257 119.56 214.257 116.808C214.257 114.163 214.876 112.083 216.113 110.568C217.372 109.032 219.015 108.264 221.042 108.264C222.578 108.264 223.804 108.723 224.721 109.64V108.648H228.465V123.368C228.465 126.077 227.879 128.04 226.705 129.256C225.553 130.472 223.569 131.187 220.753 131.4ZM221.649 121.8C222.993 121.8 224.017 121.267 224.721 120.2V113.416C223.975 112.349 222.951 111.816 221.649 111.816C220.476 111.816 219.569 112.243 218.929 113.096C218.311 113.949 218.001 115.187 218.001 116.808C218.001 118.344 218.321 119.56 218.961 120.456C219.601 121.352 220.497 121.8 221.649 121.8ZM236.124 105.768C235.698 106.195 235.175 106.408 234.556 106.408C233.938 106.408 233.404 106.195 232.956 105.768C232.53 105.32 232.316 104.787 232.316 104.168C232.316 103.549 232.53 103.027 232.956 102.6C233.404 102.173 233.938 101.96 234.556 101.96C235.175 101.96 235.698 102.173 236.124 102.6C236.551 103.027 236.764 103.549 236.764 104.168C236.764 104.787 236.551 105.32 236.124 105.768ZM232.668 125V108.648H236.412V125H232.668ZM245.39 125.384C242.851 125.384 241.582 123.987 241.582 121.192V111.912H239.15V108.648H241.582V103.688L245.326 101.896V108.648H249.102V111.912H245.326V120.456C245.326 121.501 245.785 122.024 246.702 122.024C247.534 122.024 248.387 121.779 249.262 121.288L248.814 124.648C247.875 125.139 246.734 125.384 245.39 125.384ZM261.356 125V123.688C260.268 124.819 258.817 125.384 257.004 125.384C255.254 125.384 253.825 124.915 252.716 123.976C251.628 123.016 251.084 121.672 251.084 119.944C251.084 118.173 251.702 116.829 252.94 115.912C254.198 114.995 255.713 114.536 257.484 114.536C259.041 114.536 260.332 114.824 261.356 115.4V114.536C261.356 113.491 261.089 112.733 260.556 112.264C260.044 111.795 259.244 111.56 258.156 111.56C256.385 111.56 254.764 112.072 253.292 113.096L252.14 110.056C253.91 108.861 256.044 108.264 258.54 108.264C259.393 108.264 260.14 108.339 260.78 108.488C261.441 108.616 262.113 108.883 262.796 109.288C263.5 109.693 264.044 110.333 264.428 111.208C264.812 112.083 265.004 113.171 265.004 114.472V125H261.356ZM257.708 122.088C259.137 122.088 260.353 121.565 261.356 120.52V118.408C260.417 117.96 259.329 117.736 258.092 117.736C257.089 117.736 256.278 117.917 255.66 118.28C255.041 118.643 254.732 119.197 254.732 119.944C254.732 120.605 254.988 121.128 255.5 121.512C256.012 121.896 256.748 122.088 257.708 122.088ZM269.001 125V103.656L272.745 101.896V125H269.001ZM192.888 157.384C190.84 157.384 189.069 156.872 187.576 155.848C186.104 154.803 185.059 153.384 184.44 151.592L187.992 150.28C188.461 151.325 189.133 152.168 190.008 152.808C190.883 153.427 191.885 153.736 193.016 153.736C194.189 153.736 195.117 153.469 195.8 152.936C196.504 152.403 196.856 151.635 196.856 150.632C196.856 150.227 196.76 149.853 196.568 149.512C196.376 149.149 196.152 148.851 195.896 148.616C195.661 148.381 195.299 148.147 194.808 147.912C194.317 147.677 193.901 147.496 193.56 147.368C193.219 147.219 192.717 147.037 192.056 146.824C191.203 146.525 190.541 146.291 190.072 146.12C189.624 145.949 189.037 145.672 188.312 145.288C187.608 144.883 187.064 144.477 186.68 144.072C186.317 143.667 185.987 143.133 185.688 142.472C185.411 141.789 185.272 141.043 185.272 140.232C185.272 138.525 185.933 137.096 187.256 135.944C188.579 134.792 190.371 134.216 192.632 134.216C194.509 134.216 196.067 134.664 197.304 135.56C198.541 136.435 199.373 137.587 199.8 139.016L196.344 140.168C195.661 138.632 194.339 137.864 192.376 137.864C191.373 137.864 190.584 138.077 190.008 138.504C189.453 138.909 189.176 139.496 189.176 140.264C189.176 140.776 189.389 141.235 189.816 141.64C190.264 142.045 190.733 142.355 191.224 142.568C191.736 142.76 192.483 143.016 193.464 143.336C194.104 143.571 194.584 143.752 194.904 143.88C195.245 143.987 195.715 144.179 196.312 144.456C196.909 144.733 197.379 144.989 197.72 145.224C198.061 145.437 198.445 145.736 198.872 146.12C199.32 146.504 199.661 146.909 199.896 147.336C200.131 147.741 200.333 148.232 200.504 148.808C200.675 149.363 200.76 149.971 200.76 150.632C200.76 152.723 200.013 154.376 198.52 155.592C197.048 156.787 195.171 157.384 192.888 157.384ZM210.887 157.384C208.562 157.384 206.716 156.627 205.351 155.112C204.007 153.576 203.335 151.475 203.335 148.808C203.335 146.163 204.018 144.083 205.383 142.568C206.748 141.032 208.583 140.264 210.887 140.264C212.978 140.264 214.684 140.915 216.007 142.216C217.351 143.517 218.023 145.427 218.023 147.944C218.023 148.819 217.98 149.587 217.895 150.248H207.047C207.111 151.4 207.506 152.328 208.231 153.032C208.978 153.736 209.863 154.088 210.887 154.088C212.338 154.088 213.49 153.523 214.343 152.392L216.711 154.824C215.282 156.531 213.34 157.384 210.887 157.384ZM207.079 147.144H214.311C214.226 145.971 213.863 145.085 213.223 144.488C212.583 143.869 211.804 143.56 210.887 143.56C209.82 143.56 208.935 143.859 208.231 144.456C207.548 145.032 207.164 145.928 207.079 147.144ZM221.214 157V140.648H224.958V142.344C225.619 140.957 226.739 140.264 228.318 140.264C229.47 140.264 230.483 140.637 231.358 141.384L230.814 144.808C230.003 144.232 229.075 143.944 228.03 143.944C227.176 143.944 226.451 144.243 225.854 144.84C225.256 145.437 224.958 146.44 224.958 147.848V157H221.214ZM238.114 157L232.13 140.648H235.938L239.554 150.856C239.81 151.709 239.959 152.2 240.002 152.328C240.13 151.773 240.279 151.283 240.45 150.856L244.002 140.648H247.81L241.826 157H238.114ZM253.859 137.768C253.433 138.195 252.91 138.408 252.291 138.408C251.673 138.408 251.139 138.195 250.691 137.768C250.265 137.32 250.051 136.787 250.051 136.168C250.051 135.549 250.265 135.027 250.691 134.6C251.139 134.173 251.673 133.96 252.291 133.96C252.91 133.96 253.433 134.173 253.859 134.6C254.286 135.027 254.499 135.549 254.499 136.168C254.499 136.787 254.286 137.32 253.859 137.768ZM250.403 157V140.648H254.147V157H250.403ZM264.821 157.384C262.581 157.384 260.8 156.627 259.477 155.112C258.176 153.597 257.525 151.507 257.525 148.84C257.525 146.173 258.176 144.083 259.477 142.568C260.8 141.032 262.581 140.264 264.821 140.264C268.192 140.264 270.357 141.768 271.317 144.776L267.765 145.96C267.232 144.552 266.293 143.848 264.949 143.848C263.818 143.848 262.933 144.296 262.293 145.192C261.653 146.088 261.333 147.304 261.333 148.84C261.333 150.355 261.642 151.56 262.261 152.456C262.901 153.331 263.754 153.768 264.821 153.768C266.336 153.768 267.328 152.979 267.797 151.4L271.381 152.488C270.442 155.752 268.256 157.384 264.821 157.384ZM281.406 157.384C279.08 157.384 277.235 156.627 275.87 155.112C274.526 153.576 273.854 151.475 273.854 148.808C273.854 146.163 274.536 144.083 275.902 142.568C277.267 141.032 279.102 140.264 281.406 140.264C283.496 140.264 285.203 140.915 286.526 142.216C287.87 143.517 288.542 145.427 288.542 147.944C288.542 148.819 288.499 149.587 288.414 150.248H277.566C277.63 151.4 278.024 152.328 278.75 153.032C279.496 153.736 280.382 154.088 281.406 154.088C282.856 154.088 284.008 153.523 284.862 152.392L287.23 154.824C285.8 156.531 283.859 157.384 281.406 157.384ZM277.598 147.144H284.83C284.744 145.971 284.382 145.085 283.742 144.488C283.102 143.869 282.323 143.56 281.406 143.56C280.339 143.56 279.454 143.859 278.75 144.456C278.067 145.032 277.683 145.928 277.598 147.144ZM296.887 157.384C295.564 157.384 294.316 157.128 293.143 156.616C291.991 156.104 291.116 155.421 290.519 154.568L293.079 152.392C294.231 153.544 295.5 154.12 296.887 154.12C298.657 154.12 299.543 153.587 299.543 152.52C299.543 152.157 299.383 151.827 299.063 151.528C298.764 151.229 298.433 151.005 298.071 150.856C297.729 150.685 297.164 150.44 296.375 150.12C294.497 149.501 293.121 148.797 292.247 148.008C291.393 147.197 290.967 146.131 290.967 144.808C290.967 143.379 291.511 142.269 292.599 141.48C293.708 140.669 295.105 140.264 296.791 140.264C299.265 140.264 301.217 141.107 302.647 142.792L300.055 144.904C299.095 143.987 298.007 143.528 296.791 143.528C295.319 143.528 294.583 143.976 294.583 144.872C294.583 145.32 294.849 145.704 295.383 146.024C295.937 146.344 296.737 146.675 297.783 147.016C299.553 147.613 300.887 148.317 301.783 149.128C302.7 149.939 303.159 151.069 303.159 152.52C303.159 154.077 302.593 155.283 301.463 156.136C300.332 156.968 298.807 157.384 296.887 157.384Z" fill="black"/>
<defs>
<linearGradient id="paint0_linear" x1="56" y1="114.032" x2="158.892" y2="114.032" gradientUnits="userSpaceOnUse">
<stop offset="0.24" stop-color="#FED00F"/>
<stop offset="0.78" stop-color="#E87426"/>
</linearGradient>
<clipPath id="clip0">
<rect width="103" height="116" fill="white" transform="translate(56 56)"/>
</clipPath>
</defs>
</svg>
