<svg width="446" height="392" viewBox="0 0 446 392" fill="none" xmlns="http://www.w3.org/2000/svg">
<g clip-path="url(#clip0_603_748)">
<path d="M438.177 256.724L109.959 388.9C107.98 389.696 105.766 389.675 103.804 388.839C101.842 388.003 100.292 386.423 99.4952 384.444L3.36728 145.74C2.57057 143.761 2.5924 141.547 3.42797 139.585C4.26355 137.623 5.84441 136.073 7.8228 135.276L336.042 3.10024C338.02 2.30353 340.234 2.32537 342.196 3.16094C344.158 3.99651 345.708 5.57738 346.505 7.55576L442.633 246.26C443.43 248.239 443.408 250.453 442.572 252.415C441.737 254.377 440.156 255.927 438.177 256.724Z" fill="#F1F5F9"/>
<path d="M207.98 158.702C209.836 157.954 211.905 157.925 213.781 158.62L437.971 241.723C439.493 242.287 440.809 243.298 441.745 244.625C442.682 245.951 443.195 247.529 443.217 249.152C443.24 250.776 442.77 252.368 441.871 253.719C440.971 255.071 439.683 256.118 438.177 256.724L109.959 388.9C108.453 389.507 106.799 389.644 105.214 389.293C103.629 388.942 102.187 388.12 101.078 386.934C99.9692 385.748 99.2452 384.255 99.0013 382.65C98.7574 381.045 99.0049 379.404 99.7114 377.942L203.741 162.664C204.612 160.862 206.123 159.449 207.98 158.702Z" fill="#E2E8F0"/>
<path d="M238.02 233.298C236.164 234.046 234.095 234.075 232.219 233.38L8.0295 150.277C6.50724 149.713 5.19136 148.702 4.25492 147.376C3.31848 146.049 2.80533 144.471 2.78296 142.848C2.7606 141.224 3.23006 139.632 4.12961 138.281C5.02915 136.929 6.31666 135.882 7.8228 135.276L336.042 3.10028C337.547 2.49325 339.201 2.35614 340.786 2.70699C342.371 3.05784 343.813 3.88021 344.922 5.06595C346.031 6.25169 346.755 7.74527 346.999 9.35027C347.243 10.9553 346.995 12.5965 346.289 14.0581L242.259 229.336C241.388 231.138 239.877 232.551 238.02 233.298Z" fill="#FBFDFE"/>
<path d="M258.581 249.776C289.308 238.763 305.29 204.926 294.277 174.199C283.264 143.472 249.427 127.49 218.7 138.503C187.973 149.516 171.992 183.353 183.004 214.08C194.017 244.807 227.854 260.788 258.581 249.776Z" fill="#F1F5F9"/>
<path d="M253.396 252.772C284.123 241.759 300.105 207.922 289.092 177.195C278.079 146.468 244.242 130.487 213.515 141.499C182.788 152.512 166.806 186.349 177.819 217.076C188.832 247.803 222.669 263.785 253.396 252.772Z" fill="#CFD8E3"/>
<path d="M265.473 204.439L272.868 201.788C272.286 207.308 269.967 212.217 266.225 216.593C261.847 221.576 255.749 225.469 247.849 228.3C240.201 231.041 233.194 232.13 226.714 231.513C220.233 230.895 214.76 228.589 210.263 224.511C205.766 220.432 202.464 215.451 200.355 209.568C198.036 203.097 197.38 196.504 198.471 189.758C199.563 183.013 202.259 177.305 206.559 172.634C210.86 167.963 216.483 164.335 223.375 161.865C229.174 159.787 234.776 159.012 240.127 159.654C245.479 160.297 250.069 162.255 253.929 165.614C257.788 168.973 260.675 173.059 262.452 178.018C264.561 183.901 264.609 189.858 262.713 195.944C260.313 203.538 255.598 208.641 248.455 211.202C246.522 211.895 244.973 212.07 243.723 211.76C242.474 211.449 241.524 210.651 240.736 209.511C238.98 213.08 236.268 215.569 232.739 216.835C228.873 218.22 225.281 217.99 221.826 216.288C218.371 214.587 215.845 211.509 214.279 207.138C212.321 201.676 212.087 196.259 213.486 190.636C215.226 183.848 218.968 179.472 224.767 177.394C228.885 175.918 232.483 176.43 235.531 178.847L234.986 174.68L244.146 171.396L247.821 198.057C248.058 199.774 248.251 200.843 248.402 201.263C248.612 201.851 248.931 202.211 249.274 202.373C249.616 202.535 250.012 202.582 250.349 202.462C251.441 202.07 252.629 200.886 253.912 198.908C255.633 196.3 256.722 193.254 257.097 189.801C257.471 186.347 257.113 182.966 255.998 179.857C253.95 174.142 250.246 170.158 244.743 167.768C239.269 165.462 232.861 165.578 225.466 168.228C219.246 170.457 214.32 173.646 210.967 177.787C207.501 181.875 205.518 186.664 204.99 192.069C204.461 197.475 205.086 202.657 206.893 207.699C208.64 212.574 211.497 216.576 215.35 219.653C219.233 222.813 223.703 224.436 228.82 224.688C233.937 224.941 239.311 224.058 245.026 222.009C250.573 220.021 255.008 217.578 258.416 214.65C261.77 211.835 264.15 208.422 265.473 204.439ZM222.899 203.67C223.953 206.611 225.325 208.585 226.983 209.508C228.642 210.431 230.426 210.645 232.191 210.013C233.535 209.531 234.591 208.773 235.527 207.679C236.217 206.958 236.87 205.87 237.349 204.56C238.098 202.68 238.383 200.301 238.344 197.28C238.304 194.26 237.821 191.588 236.978 189.235C236.044 186.629 234.733 184.823 232.99 183.93C231.301 182.923 229.464 182.823 227.615 183.486C225.598 184.209 224.104 185.598 222.965 187.713C221.826 189.828 221.349 192.465 221.533 195.624C221.632 198.813 222.116 201.484 222.899 203.67Z" fill="white"/>
</g>
<defs>
<clipPath id="clip0_603_748">
<rect width="445.28" height="391.81" fill="white" transform="translate(0.360352 0.0950928)"/>
</clipPath>
</defs>
</svg>
