<svg viewBox="0 0 21 25" fill="none" xmlns="http://www.w3.org/2000/svg">
<path d="M1.54005 7.38387C1.54005 7.38387 1.43406 7.66328 1.2221 8.2221C1.0294 8.76164 1.2221 9.42644 1.80018 10.2165C1.80018 10.2165 1.90617 10.0816 2.11813 9.81183C2.33009 9.54206 2.88891 9.40717 3.79458 9.40717H5.9913C7.01258 9.40717 7.8219 9.00251 8.41926 8.19319C9.03588 7.3646 9.10332 6.43967 8.62159 5.41838C8.62159 5.41838 8.88172 5.40875 9.402 5.38948C9.92228 5.35094 10.3077 5.11007 10.5582 4.66687C10.7894 4.20441 10.8087 3.87682 10.616 3.68413C10.4233 3.49143 10.1439 3.39509 9.77776 3.39509H6.13582C6.13582 3.72267 5.92386 3.89609 5.49993 3.91536C5.09527 3.93463 4.89294 3.76121 4.89294 3.39509H2.84074C2.84074 3.39509 2.5806 3.45289 2.06032 3.56851C1.54005 3.66486 1.27027 4.04061 1.251 4.69578C1.251 4.69578 1.31845 4.65724 1.45333 4.58016C1.60749 4.50308 1.77128 4.45491 1.9447 4.43564V4.78249C1.9447 4.78249 1.86763 4.80176 1.71347 4.8403C1.55931 4.87884 1.43406 4.92701 1.33772 4.98482C1.24137 5.02336 1.14502 5.12934 1.04867 5.30277C0.952325 5.47619 0.98123 5.74597 1.13539 6.11209C1.27027 6.47821 1.36662 6.73834 1.42443 6.8925C1.48224 7.04666 1.51114 7.12373 1.51114 7.12373C1.51114 7.12373 1.60749 7.05629 1.80018 6.9214C2.01215 6.78652 2.29156 6.71908 2.63841 6.71908H3.47663C4.22814 6.71908 4.55572 6.95994 4.45937 7.44168C4.36303 7.92342 3.94873 8.16429 3.21649 8.16429C2.46498 8.16429 1.99288 8.03904 1.80018 7.78853C1.62676 7.51876 1.54005 7.38387 1.54005 7.38387ZM9.25748 5.88085C9.25748 5.88085 9.35383 5.87122 9.54652 5.85195C9.75849 5.83268 9.95118 5.74597 10.1246 5.59181C10.1246 5.59181 10.4618 6.23734 11.1363 7.52839C11.83 8.80018 10.9628 10.7271 8.53487 13.3092C7.3209 14.581 6.57902 15.7468 6.30925 16.8067C6.03947 17.8472 5.98166 18.7336 6.13582 19.4658C6.30925 20.1981 6.56938 20.7665 6.91624 21.1712C7.26309 21.5759 7.43651 21.7782 7.43651 21.7782C7.43651 21.7782 7.31126 21.9805 7.06076 22.3852C6.81025 22.8091 6.81025 23.4354 7.06076 24.264C7.06076 24.264 6.6561 23.9942 5.84678 23.4546C5.03746 22.9151 4.24741 22.1539 3.47663 21.1712C2.91781 20.4775 2.44571 19.6971 2.06032 18.83C1.67493 17.9628 1.52078 17.0668 1.59785 16.1419C1.67493 15.2169 2.05069 14.2824 2.72512 13.3381C3.38028 12.3939 4.47864 11.4979 6.0202 10.6501C6.0202 10.6501 6.22253 10.5248 6.62719 10.2743C7.05112 10.0431 7.48469 9.71548 7.92788 9.29155C8.39035 8.86762 8.78538 8.36662 9.11296 7.78853C9.42127 7.19118 9.46944 6.55528 9.25748 5.88085ZM4.25704 2.90371C4.25704 2.90371 4.42084 2.71102 4.74842 2.32563C5.09527 1.94024 5.65408 1.74754 6.42486 1.74754C7.02222 1.74754 7.41724 1.64156 7.60994 1.4296C7.80263 1.21763 7.89898 1.11165 7.89898 1.11165C7.89898 1.11165 8.09168 0.94786 8.47707 0.620278C8.88172 0.292697 9.73922 0.128906 11.0495 0.128906C12.2635 0.128906 13.2944 0.311966 14.1423 0.678087C15.0094 1.02494 15.7706 1.46814 16.4257 2.00768C16.4257 2.00768 16.2234 1.91133 15.8187 1.71864C15.4141 1.50668 14.8745 1.36215 14.2001 1.28508C13.5449 1.208 12.7934 1.26581 11.9456 1.4585C11.0977 1.6512 10.2402 2.13293 9.3731 2.90371H4.25704ZM19.056 10.3032C19.0368 9.39754 18.8344 8.49187 18.449 7.5862C18.0829 6.68054 17.5241 5.88085 16.7726 5.18715C16.0403 4.47418 15.1154 3.91536 13.9978 3.5107C12.8801 3.08677 11.5698 2.90371 10.0668 2.96152C11.5506 1.70901 13.1788 1.35252 14.9516 1.89207C16.7437 2.45088 18.1985 3.46253 19.3162 4.92701C20.4531 6.37222 21.0119 8.04867 20.9926 9.95635C20.9926 11.8833 19.9328 13.579 17.8131 15.0435C17.8131 15.0435 18.0347 14.6003 18.4779 13.7139C18.9404 12.8082 19.1331 11.6713 19.056 10.3032ZM10.9628 3.36618C12.8127 3.30837 14.3543 3.75157 15.5875 4.69578C16.8208 5.62071 17.6783 6.75761 18.16 8.10648C18.661 9.45534 18.7573 10.862 18.449 12.3265C18.16 13.791 17.4181 15.0242 16.2234 16.0262L11.4253 18.3386C11.4253 18.3386 11.4157 17.905 11.3964 17.0379C11.3771 16.1708 11.9552 15.1398 13.1306 13.9451C13.7087 13.3671 14.2386 12.6734 14.7204 11.864C15.2021 11.0547 15.4526 10.2069 15.4719 9.32046C15.4912 8.43406 15.1925 7.5573 14.5759 6.69017C13.9785 5.80377 12.8705 4.99445 11.2519 4.26221C11.2519 4.26221 11.2519 4.15623 11.2519 3.94427C11.2711 3.71303 11.1748 3.52034 10.9628 3.36618ZM10.5871 5.36058C10.5871 5.36058 10.6449 5.29313 10.7605 5.15825C10.8954 5.02336 10.9917 4.87884 11.0495 4.72468C12.4369 5.30277 13.439 5.96756 14.0556 6.71908C14.6722 7.47059 14.9998 8.27027 15.0383 9.11813C15.0769 9.94672 14.8553 10.7946 14.3735 11.6617C13.8918 12.5288 13.2366 13.3767 12.408 14.2053C11.406 15.2458 10.9243 16.2286 10.9628 17.1535C11.0014 18.0592 11.0206 18.512 11.0206 18.512C11.0206 18.512 10.5774 18.83 9.69104 19.4658C8.80465 20.0825 8.14948 20.7184 7.72555 21.3735C7.72555 21.3735 7.56176 21.1905 7.23418 20.8243C6.9066 20.4582 6.67537 19.9283 6.54048 19.2346C6.40559 18.5409 6.49231 17.6931 6.80062 16.691C7.08966 15.689 7.85081 14.5618 9.08405 13.3092C10.298 12.076 11.0592 10.968 11.3675 9.98526C11.6758 9.00251 11.7722 8.17392 11.6565 7.49949C11.5409 6.80579 11.329 6.27588 11.0206 5.90976C10.7316 5.54364 10.5871 5.36058 10.5871 5.36058Z" fill="#db0000"/>
</svg>
