<svg width="685" height="423" viewBox="0 0 685 423" fill="none" xmlns="http://www.w3.org/2000/svg">
    <path d="M567.668 137.082H430.887C430.023 137.085 429.195 137.429 428.585 138.04C427.974 138.652 427.629 139.48 427.627 140.345V284.012C427.629 284.877 427.974 285.705 428.585 286.316C429.195 286.928 430.023 287.272 430.887 287.275H567.668C568.532 287.272 569.36 286.928 569.97 286.316C570.581 285.705 570.926 284.877 570.928 284.012V140.345C570.926 139.48 570.581 138.652 569.97 138.04C569.36 137.429 568.532 137.085 567.668 137.082Z" fill="#E6E6E6"/>
    <path d="M564.408 141.16H434.147C433.5 141.162 432.879 141.421 432.421 141.879C431.963 142.338 431.705 142.959 431.702 143.607V280.75C431.704 281.398 431.962 282.019 432.42 282.478C432.879 282.936 433.499 283.195 434.147 283.197H564.408C565.056 283.195 565.677 282.936 566.135 282.478C566.593 282.019 566.851 281.398 566.853 280.75V143.607C566.851 142.959 566.593 142.337 566.135 141.879C565.677 141.42 565.056 141.162 564.408 141.16Z" fill="white"/>
    <path d="M554.742 175.851C555.115 175.851 555.472 175.999 555.735 176.262C555.999 176.526 556.147 176.883 556.147 177.256V180.066C556.147 180.439 555.999 180.796 555.735 181.06C555.472 181.323 555.115 181.471 554.742 181.471H443.814C443.629 181.471 443.447 181.435 443.276 181.364C443.106 181.294 442.951 181.19 442.821 181.06C442.691 180.929 442.587 180.774 442.517 180.604C442.446 180.433 442.41 180.251 442.41 180.066V177.256C442.41 177.071 442.446 176.889 442.517 176.718C442.587 176.548 442.691 176.393 442.821 176.262C442.951 176.132 443.106 176.028 443.276 175.958C443.447 175.887 443.629 175.851 443.814 175.851H554.742Z" fill="#E6E6E6"/>
    <path d="M554.742 189.199C555.115 189.199 555.472 189.347 555.735 189.611C555.999 189.874 556.147 190.232 556.147 190.604V193.415C556.147 193.787 555.999 194.145 555.735 194.408C555.472 194.672 555.115 194.82 554.742 194.82H443.814C443.629 194.82 443.447 194.783 443.276 194.713C443.106 194.642 442.951 194.539 442.821 194.408C442.691 194.278 442.587 194.123 442.517 193.952C442.446 193.782 442.41 193.599 442.41 193.415V190.604C442.41 190.42 442.446 190.237 442.517 190.067C442.587 189.896 442.691 189.741 442.821 189.611C442.951 189.48 443.106 189.377 443.276 189.306C443.447 189.236 443.629 189.199 443.814 189.199H554.742" fill="#E6E6E6"/>
    <path d="M554.742 202.548C555.115 202.548 555.472 202.696 555.735 202.959C555.999 203.223 556.147 203.58 556.147 203.953V206.763C556.147 207.136 555.999 207.493 555.735 207.757C555.472 208.02 555.115 208.168 554.742 208.168H443.814C443.441 208.168 443.084 208.02 442.821 207.757C442.558 207.493 442.41 207.136 442.41 206.763V203.953C442.41 203.58 442.558 203.223 442.821 202.959C443.084 202.696 443.441 202.548 443.814 202.548H554.742Z" fill="#BFBADA"/>
    <path d="M554.742 216.188C555.115 216.188 555.472 216.336 555.735 216.6C555.999 216.863 556.147 217.221 556.147 217.593V220.404C556.147 220.776 555.999 221.134 555.735 221.397C555.472 221.661 555.115 221.809 554.742 221.809H443.814C443.629 221.809 443.447 221.772 443.276 221.702C443.106 221.631 442.951 221.528 442.821 221.397C442.691 221.267 442.587 221.112 442.517 220.941C442.446 220.771 442.41 220.588 442.41 220.404V217.593C442.41 217.409 442.446 217.226 442.517 217.056C442.587 216.885 442.691 216.73 442.821 216.6C442.951 216.469 443.106 216.366 443.276 216.295C443.447 216.225 443.629 216.188 443.814 216.188H554.742" fill="#E6E6E6"/>
    <path d="M554.742 229.537C555.115 229.537 555.472 229.685 555.735 229.949C555.999 230.212 556.147 230.569 556.147 230.942V233.752C556.147 234.125 555.999 234.482 555.735 234.746C555.472 235.009 555.115 235.157 554.742 235.157H443.814C443.629 235.157 443.447 235.121 443.276 235.05C443.106 234.98 442.951 234.876 442.821 234.746C442.691 234.615 442.587 234.46 442.517 234.29C442.446 234.12 442.41 233.937 442.41 233.752V230.942C442.41 230.758 442.446 230.575 442.517 230.404C442.587 230.234 442.691 230.079 442.821 229.949C442.951 229.818 443.106 229.715 443.276 229.644C443.447 229.573 443.629 229.537 443.814 229.537H554.742Z" fill="#E6E6E6"/>
    <path d="M554.742 242.885C555.115 242.886 555.472 243.034 555.735 243.297C555.999 243.561 556.147 243.918 556.147 244.291V247.101C556.147 247.473 555.999 247.831 555.735 248.094C555.472 248.358 555.115 248.506 554.742 248.506H443.814C443.441 248.506 443.084 248.358 442.821 248.094C442.558 247.831 442.41 247.473 442.41 247.101V244.291C442.41 243.918 442.558 243.561 442.821 243.297C443.084 243.034 443.441 242.885 443.814 242.885H554.742Z" fill="#E6E6E6"/>
    <path d="M231.578 137.898H94.7975C93.9348 137.904 93.1092 138.25 92.4991 138.86C91.889 139.471 91.5436 140.297 91.5374 141.16V284.828C91.5399 285.692 91.8842 286.52 92.495 287.132C93.1059 287.743 93.9337 288.088 94.7975 288.09H231.578C232.442 288.088 233.27 287.743 233.881 287.132C234.492 286.52 234.836 285.692 234.839 284.828V141.16C234.836 140.296 234.492 139.467 233.881 138.856C233.27 138.245 232.442 137.9 231.578 137.898Z" fill="#E6E6E6"/>
    <path d="M228.318 141.976H98.057C97.4091 141.978 96.7882 142.236 96.3301 142.694C95.8719 143.153 95.6137 143.774 95.6118 144.422V281.565C95.6137 282.214 95.8719 282.835 96.3301 283.293C96.7882 283.752 97.4091 284.01 98.057 284.012H228.318C228.965 284.01 229.586 283.752 230.044 283.293C230.503 282.835 230.761 282.214 230.763 281.565V144.422C230.761 143.774 230.503 143.153 230.044 142.694C229.586 142.236 228.965 141.978 228.318 141.976Z" fill="white"/>
    <path d="M218.652 175.909C219.024 175.909 219.381 176.057 219.645 176.32C219.908 176.584 220.056 176.941 220.056 177.314V180.124C220.056 180.497 219.908 180.854 219.645 181.117C219.381 181.381 219.024 181.529 218.652 181.529H107.723C107.539 181.529 107.356 181.493 107.186 181.422C107.015 181.351 106.861 181.248 106.73 181.117C106.6 180.987 106.496 180.832 106.426 180.662C106.355 180.491 106.319 180.308 106.319 180.124V177.314C106.319 177.129 106.355 176.946 106.426 176.776C106.496 176.605 106.6 176.451 106.73 176.32C106.861 176.19 107.015 176.086 107.186 176.015C107.356 175.945 107.539 175.909 107.723 175.909H218.652Z" fill="#E6E6E6"/>
    <path d="M218.652 189.257C219.024 189.257 219.381 189.405 219.645 189.669C219.908 189.932 220.056 190.29 220.056 190.662V193.472C220.056 193.845 219.908 194.203 219.645 194.466C219.381 194.73 219.024 194.878 218.652 194.878H107.723C107.539 194.878 107.356 194.841 107.186 194.771C107.015 194.7 106.861 194.597 106.73 194.466C106.6 194.336 106.496 194.181 106.426 194.01C106.355 193.84 106.319 193.657 106.319 193.472V190.662C106.319 190.478 106.355 190.295 106.426 190.125C106.496 189.954 106.6 189.799 106.73 189.669C106.861 189.538 107.015 189.435 107.186 189.364C107.356 189.293 107.539 189.257 107.723 189.257H218.652Z" fill="#E6E6E6"/>
    <path d="M218.652 202.606C219.024 202.606 219.381 202.754 219.645 203.017C219.908 203.281 220.056 203.638 220.056 204.011V206.821C220.056 207.194 219.908 207.551 219.645 207.815C219.381 208.078 219.024 208.226 218.652 208.226H107.723C107.351 208.226 106.994 208.078 106.73 207.815C106.467 207.551 106.319 207.194 106.319 206.821V204.011C106.319 203.638 106.467 203.281 106.73 203.017C106.994 202.754 107.351 202.606 107.723 202.606H218.652" fill="#BFBADA"/>
    <path d="M218.652 216.246C219.024 216.246 219.381 216.394 219.645 216.658C219.908 216.921 220.056 217.279 220.056 217.651V220.462C220.056 220.834 219.908 221.192 219.645 221.455C219.381 221.719 219.024 221.867 218.652 221.867H107.723C107.539 221.867 107.356 221.83 107.186 221.76C107.015 221.689 106.861 221.586 106.73 221.455C106.6 221.325 106.496 221.17 106.426 220.999C106.355 220.829 106.319 220.646 106.319 220.462V217.651C106.319 217.467 106.355 217.284 106.426 217.114C106.496 216.943 106.6 216.788 106.73 216.658C106.861 216.527 107.015 216.424 107.186 216.353C107.356 216.283 107.539 216.246 107.723 216.246H218.652Z" fill="#E6E6E6"/>
    <path d="M218.652 229.595C219.024 229.595 219.381 229.743 219.645 230.006C219.908 230.27 220.056 230.627 220.056 231V233.81C220.056 234.183 219.908 234.54 219.645 234.804C219.381 235.067 219.024 235.215 218.652 235.215H107.723C107.539 235.215 107.356 235.179 107.186 235.108C107.015 235.038 106.861 234.934 106.73 234.804C106.6 234.673 106.496 234.518 106.426 234.348C106.355 234.177 106.319 233.995 106.319 233.81V231C106.319 230.816 106.355 230.633 106.426 230.462C106.496 230.292 106.6 230.137 106.73 230.006C106.861 229.876 107.015 229.772 107.186 229.702C107.356 229.631 107.539 229.595 107.723 229.595H218.652Z" fill="#E6E6E6"/>
    <path d="M218.652 242.943C219.024 242.943 219.381 243.091 219.645 243.355C219.908 243.618 220.056 243.976 220.056 244.348V247.159C220.056 247.531 219.908 247.889 219.645 248.152C219.381 248.416 219.024 248.564 218.652 248.564H107.723C107.351 248.564 106.994 248.416 106.73 248.152C106.467 247.889 106.319 247.531 106.319 247.159V244.348C106.319 243.976 106.467 243.618 106.73 243.355C106.994 243.091 107.351 242.943 107.723 242.943H218.652Z" fill="#E6E6E6"/>
    <path d="M439.294 31.3879C441.92 32.4623 444.532 33.6535 447.055 34.9287L447.725 33.7006C445.168 32.4077 442.52 31.2003 439.858 30.111L439.294 31.3879Z" fill="#CCCCCC"/>
    <path d="M469.165 48.1776L468.201 49.278C470.334 51.2245 472.412 53.2859 474.378 55.4043L475.427 54.3896C473.434 52.2417 471.327 50.1514 469.165 48.1776Z" fill="#CCCCCC"/>
    <path d="M454.952 39.7417C457.148 41.2477 459.313 42.8701 461.385 44.5643L462.178 43.4309C460.077 41.7138 457.882 40.0688 455.655 38.5421L454.952 39.7417Z" fill="#CCCCCC"/>
    <path d="M422.432 25.43C425.502 26.0784 428.574 26.8431 431.564 27.7021L432.067 26.3919C429.036 25.5214 425.922 24.7463 422.81 24.0888L422.432 25.43Z" fill="#CCCCCC"/>
    <path d="M502.131 109.604L500.72 109.824C501.167 112.53 501.498 115.292 501.705 118.035L503.129 117.933C502.92 115.151 502.584 112.349 502.131 109.604Z" fill="#CCCCCC"/>
    <path d="M497.107 92.0601C497.982 95.0431 498.756 98.1092 499.408 101.173L500.721 100.784C500.06 97.6756 499.274 94.5646 498.387 91.5375L497.107 92.0601Z" fill="#CCCCCC"/>
    <path d="M489.88 76.5817C491.173 79.0946 492.38 81.6952 493.466 84.3108L494.698 83.7199C493.597 81.0665 492.373 78.4286 491.061 75.8797L489.88 76.5817Z" fill="#CCCCCC"/>
    <path d="M480.245 62.3966C481.955 64.7963 483.594 67.3068 485.117 69.8575L486.267 68.9927C484.723 66.4056 483.06 63.8599 481.326 61.4264L480.245 62.3966Z" fill="#CCCCCC"/>
    <path d="M409.376 15.6578C406.205 18.1718 401.171 20.4523 397.139 21.7382C401.037 23.3866 405.842 26.1151 408.77 28.9067L406.894 22.8889C409.2 23.1024 411.51 23.3887 413.78 23.7517L414.001 22.3749C411.678 22.0031 409.313 21.7109 406.953 21.4939L409.376 15.6578Z" fill="#CCCCCC"/>
    <path d="M177.93 83.7199L179.163 84.3108C180.248 81.6963 181.454 79.0957 182.748 76.5818L181.567 75.8797C180.254 78.4297 179.031 81.0676 177.93 83.7199Z" fill="#CCCCCC"/>
    <path d="M171.908 100.784L173.658 101.173C174.526 98.1134 175.558 95.0471 176.726 92.0593L175.02 91.5375C173.836 94.5686 172.789 97.6797 171.908 100.784Z" fill="#CCCCCC"/>
    <path d="M169.499 117.933L170.924 118.035C171.13 115.292 171.461 112.53 171.908 109.824L170.498 109.604C170.044 112.349 169.708 115.151 169.499 117.933Z" fill="#CCCCCC"/>
    <path d="M186.362 68.9927L187.511 69.8575C189.033 67.3087 190.672 64.7986 192.384 62.3966L191.303 61.4264C189.567 63.8618 187.905 66.4075 186.362 68.9927Z" fill="#CCCCCC"/>
    <path d="M224.904 33.7006L225.574 34.9287C228.1 33.6525 230.711 32.4613 233.335 31.3879L232.771 30.111C230.111 31.1992 227.465 32.4067 224.904 33.7006Z" fill="#CCCCCC"/>
    <path d="M241.766 26.3919L242.205 27.7021C244.822 26.8431 247.51 26.0785 250.197 25.4301L249.866 24.0888C247.143 24.7463 244.417 25.5214 241.766 26.3919Z" fill="#CCCCCC"/>
    <path d="M197.201 54.3896L198.251 55.4043C200.216 53.2874 202.294 51.226 204.428 49.278L203.464 48.1776C201.3 50.1529 199.193 52.2428 197.201 54.3896Z" fill="#CCCCCC"/>
    <path d="M210.45 43.4308L211.375 44.5643C213.794 42.8697 216.32 41.2471 218.881 39.7418L218.06 38.5421C215.463 40.0682 212.903 41.7129 210.45 43.4308Z" fill="#CCCCCC"/>
    <path d="M276.694 21.7396C272.374 20.4522 266.98 18.1718 263.583 15.6578L266.179 21.4953C263.65 21.7122 261.117 22.0045 258.628 22.3763L258.865 23.7531C261.296 23.3901 263.771 23.1038 266.242 22.8903L264.232 28.9067C267.37 26.1151 272.518 23.3866 276.694 21.7396Z" fill="#CCCCCC"/>
    <path d="M336.641 44.5643C332.234 44.5643 327.926 43.2575 324.262 40.8091C320.597 38.3607 317.741 34.8807 316.055 30.8092C314.369 26.7376 313.927 22.2575 314.787 17.9351C315.647 13.6128 317.769 9.64253 320.885 6.52632C324.001 3.4101 327.972 1.28791 332.294 0.428152C336.616 -0.43161 341.097 0.00966504 345.168 1.69615C349.24 3.38263 352.72 6.23859 355.168 9.90287C357.616 13.5671 358.923 17.8752 358.923 22.2822C358.916 28.1897 356.567 33.8533 352.389 38.0306C348.212 42.2078 342.549 44.5576 336.641 44.5643ZM336.641 1.43755C332.518 1.43755 328.488 2.66006 325.06 4.9505C321.633 7.24093 318.961 10.4964 317.383 14.3053C315.805 18.1141 315.393 22.3053 316.197 26.3487C317.001 30.3922 318.987 34.1063 321.902 37.0215C324.817 39.9366 328.531 41.9219 332.574 42.7262C336.618 43.5305 340.809 43.1177 344.618 41.54C348.427 39.9623 351.682 37.2906 353.973 33.8628C356.263 30.4349 357.486 26.4048 357.486 22.2821C357.479 16.7557 355.281 11.4575 351.374 7.5497C347.466 3.64194 342.167 1.4438 336.641 1.43757V1.43755Z" fill="#CCCCCC"/>
    <g clip-path="url(#clip0)">
        <path d="M676.653 396.396C676.713 397.4 677.33 403.277 676.551 404.315C675.121 406.195 662.634 406.1 662.017 405.557C661.401 405.014 660.981 403.806 661.482 403.426C661.983 403.046 666.869 401.743 667.505 401.241C668.142 400.739 668.928 398.208 668.501 396.898" fill="#1F161E"/>
        <path d="M614.764 234.043C612.637 238.875 594.77 291.517 595.183 299.193C595.596 306.868 636.941 385.958 639.224 386.793C641.507 387.627 650.993 384.709 651.759 382.633C652.525 380.556 637.354 333.356 636.941 321.269" fill="#1F161E"/>
        <path d="M614.764 234.043C615.835 239.737 633.614 318.256 633.614 318.256L666.211 397.325C668.922 398.649 676.897 398.791 678.292 398.37C679.688 397.95 672.987 322.233 670.338 311.504C667.688 300.774 660.716 226.286 660.716 226.286C660.716 226.286 624.196 226.89 614.764 234.043Z" fill="#63625E"/>
        <path d="M623.573 150.033C618.193 152.551 583.888 169.456 580.941 169.456C577.993 169.456 546.636 151.709 544.793 150.515C543.038 152.273 540.362 155.041 541.012 155.944C541.663 156.847 577.621 190.501 580.67 190.501C583.719 190.501 614.602 181.088 617 178.502" fill="#75C9C8"/>
        <path d="M635.213 146.362C604.384 141.299 611.729 230.656 614.764 234.043C617.8 237.429 659.381 229.292 662.085 226.089C664.788 222.886 656.847 147.21 635.213 146.362Z" fill="#75C9C8"/>
        <path d="M649.95 383.196C650.316 384.126 652.701 389.534 652.26 390.763C651.468 392.989 639.556 396.708 638.804 396.375C638.052 396.043 637.279 395.018 637.639 394.509C637.998 394 642.26 391.272 642.72 390.593C643.181 389.914 643.154 387.274 642.341 386.155" fill="#1F161E"/>
        <path d="M629.786 151.017C629.786 153.148 639.271 153.311 639.271 151.017V136.766H629.786V151.017Z" fill="#F8CDBA"/>
        <path d="M639.278 143.64C639.278 142.615 635.789 137.037 633.98 137.634C636.209 136.84 638.459 136.189 639.278 136.738V143.64Z" fill="black"/>
        <path d="M632.997 138.15C639.804 138.15 645.322 132.623 645.322 125.805C645.322 118.988 639.804 113.461 632.997 113.461C626.191 113.461 620.673 118.988 620.673 125.805C620.673 132.623 626.191 138.15 632.997 138.15Z" fill="#F8CDBA"/>
        <path d="M620.537 128.534C621.675 128.534 622.597 128.053 622.597 127.461C622.597 126.869 621.675 126.389 620.537 126.389C619.399 126.389 618.477 126.869 618.477 127.461C618.477 128.053 619.399 128.534 620.537 128.534Z" fill="#FA9E9F"/>
        <path d="M633.465 128.534C634.603 128.534 635.525 128.053 635.525 127.461C635.525 126.869 634.603 126.389 633.465 126.389C632.327 126.389 631.405 126.869 631.405 127.461C631.405 128.053 632.327 128.534 633.465 128.534Z" fill="#FA9E9F"/>
        <path d="M625.558 125.235C625.172 125.785 623.193 128.092 625.28 129.029" stroke="#1F161E" stroke-width="0.69" stroke-miterlimit="10" stroke-linecap="round"/>
        <path d="M629.454 131.723C630.285 131.498 631.006 130.98 631.486 130.264" stroke="#1F161E" stroke-width="0.69" stroke-miterlimit="10" stroke-linecap="round"/>
        <path d="M640.518 129.11C642.019 129.11 643.235 127.892 643.235 126.389C643.235 124.886 642.019 123.668 640.518 123.668C639.018 123.668 637.801 124.886 637.801 126.389C637.801 127.892 639.018 129.11 640.518 129.11Z" fill="#F8CDBA"/>
        <path d="M661.516 229.618C675.182 229.245 685 219.662 685 195.007C685 184.827 668.102 154.18 664.748 142.602C663.013 136.623 664.409 119.032 655.553 110.081C651.285 105.772 632.516 106.79 627.672 108.819C622.827 110.848 623.396 116.963 623.891 117.92C625.05 116.942 627.591 114.961 628.044 115.022C630.423 115.314 636.914 122.629 638.885 125.989C640.484 128.703 638.018 145.561 641.142 150.379C644.265 155.198 655.323 152.666 655.323 152.666" fill="#1F161E"/>
        <path d="M635.322 182.262C637.212 184.63 651.17 209.856 651.17 213.649C651.17 217.443 647.03 244.331 646.203 245.634C648.093 247.052 653.06 250.961 653.06 250.961C653.06 250.961 668.197 224.189 668.197 209.15C668.197 203.816 656.136 160.464 644.543 150.515" fill="#75C9C8"/>
        <path d="M635.322 182.262C637.212 184.631 651.17 209.856 651.17 213.649C651.17 215.529 650.147 223.089 649.022 230.392" stroke="#1F161E" stroke-linecap="round" stroke-linejoin="round"/>
        <path d="M639.895 146.321C639.319 151.329 653.907 168.804 659.592 173.921C665.27 166.755 661.861 149.002 661.861 149.002L650.275 143.64L639.895 146.321Z" fill="#1F161E"/>
        <path d="M653.06 109.294C656.364 109.294 659.043 106.128 659.043 102.222C659.043 98.3169 656.364 95.1509 653.06 95.1509C649.756 95.1509 647.077 98.3169 647.077 102.222C647.077 106.128 649.756 109.294 653.06 109.294Z" fill="#1F161E"/>
        <path d="M618.41 157.81C615.604 163.979 613.87 172.062 612.881 180.626" stroke="#1F161E" stroke-linecap="round" stroke-linejoin="round"/>
        <path d="M539.007 155.679C542.191 155.679 544.773 153.546 544.773 150.915C544.773 148.284 542.191 146.151 539.007 146.151C535.822 146.151 533.24 148.284 533.24 150.915C533.24 153.546 535.822 155.679 539.007 155.679Z" fill="#F8CDBA"/>
        <path d="M542.286 136.738L535.327 158.781" stroke="black" stroke-width="3" stroke-miterlimit="10" stroke-linecap="round"/>
    </g>
    <g clip-path="url(#clip1)">
        <path d="M235.767 333.231C236.674 333.384 241.943 334.554 242.965 333.942C244.819 332.835 246.008 321.475 245.578 320.862C245.147 320.249 244.085 319.771 243.693 320.149C243.301 320.528 241.623 324.878 241.099 325.415C240.575 325.952 235.554 326.176 234.408 325.648" fill="#1F161E"/>
        <path d="M215.82 338.112C216.462 338.761 220.111 342.754 221.291 342.842C223.443 342.997 230.964 334.371 230.95 333.675C230.936 332.98 230.388 331.9 229.824 331.991C229.26 332.082 225.407 334.659 224.673 334.794C223.938 334.929 219.7 332.23 219.065 331.141" fill="#1F161E"/>
        <path d="M15.5021 341.737C14.5676 343.34 10.9372 347.283 10.4307 355.009C10.9503 365.644 17.0968 369.068 20.4577 368.455C23.8185 367.841 18.5934 356.021 22.1982 344.375" fill="#F8CDBA"/>
        <path d="M133.977 277.648C146.972 277.127 223.414 325.316 224.472 327.355C225.531 329.395 216.272 339.886 214.064 339.294C211.857 338.703 184.03 321.636 184.03 321.636L71.8957 324.412C77.5825 319.533 118.616 278.276 133.977 277.648Z" fill="#1F161E"/>
        <path d="M143.716 281.171C147.987 282.315 152.21 280.404 153.148 276.901C154.087 273.399 151.385 269.632 147.114 268.488C142.843 267.343 138.62 269.255 137.682 272.757C136.743 276.259 139.445 280.026 143.716 281.171Z" fill="#F8CDBA"/>
        <path d="M40.872 323.2C40.0487 339.519 42.4023 350.411 50.2934 354.295C73.9547 365.116 137.018 339.504 146.055 335.495C153.617 335.675 235.23 334.822 236.004 334.103C236.777 333.384 236.373 326.243 235.122 325.334C233.871 324.425 160.829 310.62 157.293 310.364C145.072 308.798 69.2568 305.651 40.872 323.2Z" fill="#BEB1D7"/>
        <path d="M56.3829 228.183C56.1996 229.358 65.7552 230.826 65.9385 229.651L67.7417 217.757L58.2136 216.29L56.3829 228.183Z" fill="#F8CDBA"/>
        <path d="M64.5494 220.995C63.618 220.856 57.2109 222.562 57.0225 224.04L58.2135 216.29C59.6945 216.521 64.5494 220.995 64.5494 220.995Z" fill="#1F161E"/>
        <path d="M64.3911 221.741C71.6247 223.679 79.059 219.39 80.996 212.161C82.9331 204.932 78.6394 197.5 71.4058 195.562C64.1722 193.624 56.7379 197.913 54.8009 205.142C52.8638 212.371 57.1575 219.803 64.3911 221.741Z" fill="#F8CDBA"/>
        <path d="M79.8017 214.556C81.1003 214.756 82.2372 214.371 82.3411 213.697C82.445 213.022 81.4765 212.313 80.1779 212.113C78.8793 211.913 77.7423 212.297 77.6384 212.972C77.5346 213.646 78.5031 214.355 79.8017 214.556Z" fill="#FA9E9F"/>
        <path d="M65.0409 212.287C66.3395 212.487 67.4765 212.103 67.5803 211.429C67.6842 210.754 66.7157 210.045 65.4171 209.845C64.1185 209.645 62.9816 210.029 62.8777 210.704C62.7738 211.378 63.7423 212.087 65.0409 212.287Z" fill="#FA9E9F"/>
        <path d="M74.6481 209.928C74.99 210.614 76.8418 213.592 74.3095 214.29" stroke="#1F161E" stroke-width="1.2" stroke-miterlimit="10" stroke-linecap="round"/>
        <path d="M69.088 216.632C68.39 216.5 67.4276 215.495 66.9757 214.6" stroke="#1F161E" stroke-width="1.2" stroke-miterlimit="10" stroke-linecap="round"/>
        <path d="M69.301 190.455C65.6991 190.548 54.9705 189.042 52.3237 187.275C51.3079 188.019 47.5986 192.516 44.8914 198.255L50.6062 202.49L43.8968 200.547C42.654 203.502 41.9693 206.661 41.8772 209.866C44.1557 213.989 49.4928 215.011 50.4868 214.994C56.7821 214.841 57.7137 204.858 60.6408 203.229C65.6221 200.415 72.6419 204.737 80.4156 203.224C81.5861 199.424 77.9286 190.222 69.301 190.455Z" fill="#1F161E"/>
        <path d="M54.4565 211.307C56.1285 211.755 57.8469 210.764 58.2947 209.093C58.7424 207.422 57.7499 205.704 56.0779 205.256C54.4059 204.808 52.6874 205.8 52.2397 207.471C51.792 209.142 52.7844 210.859 54.4565 211.307Z" fill="#F8CDBA"/>
        <path d="M37.768 238.345C48.426 221.73 78.4107 229.349 83.2702 232.67C88.1297 235.991 92.7171 271.08 94.5949 272.206C96.4727 273.331 139.321 267.105 140.179 267.957C141.037 268.809 141.435 281.341 140.402 282.772C139.368 284.203 89.9608 290.069 88.4634 289.847C88.2801 292.287 89.4317 308.285 87.779 310.476C86.1263 312.668 56.352 325.668 40.8845 323.231C38.2772 322.789 39.358 304.347 39.358 304.347C38.4263 307.824 26.4257 346.233 25.2899 346.392C24.1542 346.551 12.7527 345.052 12.0487 343.626C11.3447 342.199 36.4219 240.425 37.768 238.345Z" fill="#FADB93"/>
        <path d="M39.4308 304.643L61.6496 249.556" stroke="#1F161E" stroke-width="0.55" stroke-miterlimit="10" stroke-linecap="round"/>
        <path d="M87.7665 310.445C89.4261 299.087 88.4121 269.304 88.3712 266.41" stroke="#1F161E" stroke-width="0.55" stroke-miterlimit="10" stroke-linecap="round"/>
    </g>
    <g clip-path="url(#clip2)">
        <path d="M337.243 8.43109C332.589 8.4364 328.818 12.208 328.812 16.8622V22.2821C328.812 22.6147 329.082 22.8844 329.414 22.8844H331.823C332.156 22.8844 332.426 22.6147 332.426 22.2821V16.8622C332.426 14.2014 334.583 12.0444 337.243 12.0444C339.904 12.0444 342.061 14.2014 342.061 16.8622V22.2821C342.061 22.6147 342.331 22.8844 342.663 22.8844H345.072C345.405 22.8844 345.674 22.6147 345.674 22.2821V16.8622C345.669 12.208 341.898 8.4364 337.243 8.43109Z" fill="#848287"/>
        <path d="M345.072 21.68H329.414C328.417 21.68 327.608 22.4889 327.608 23.4867V34.3266C327.608 35.9896 328.956 37.3377 330.619 37.3377H343.868C345.531 37.3377 346.879 35.9896 346.879 34.3266V23.4867C346.879 22.4889 346.07 21.68 345.072 21.68Z" fill="#FADB93"/>
        <path d="M338.871 29.4726C339.371 29.0202 339.655 28.3765 339.652 27.7021C339.652 26.3717 338.574 25.2932 337.243 25.2932C335.913 25.2932 334.834 26.3717 334.834 27.7021C334.832 28.3765 335.116 29.0202 335.616 29.4726L334.865 31.7273C334.759 32.0429 334.93 32.3839 335.246 32.489C335.307 32.5095 335.372 32.52 335.437 32.5199H339.05C339.383 32.5203 339.653 32.251 339.653 31.9185C339.653 31.8535 339.643 31.789 339.622 31.7274L338.871 29.4726Z" fill="#848287"/>
    </g>
    <line x1="255.341" y1="177.757" x2="397.465" y2="177.757" stroke="#CCCCCC" stroke-dasharray="8 4"/>
    <line x1="255.341" y1="197.028" x2="397.465" y2="197.028" stroke="#CCCCCC" stroke-dasharray="8 4"/>
    <line x1="255.341" y1="216.299" x2="397.465" y2="216.299" stroke="#CCCCCC" stroke-dasharray="8 4"/>
    <line x1="255.341" y1="235.57" x2="397.465" y2="235.57" stroke="#CCCCCC" stroke-dasharray="8 4"/>
    <line x1="255.341" y1="254.841" x2="397.465" y2="254.841" stroke="#CCCCCC" stroke-dasharray="8 4"/>
    <circle cx="326.403" cy="215.595" r="14.4533" fill="#88C7C7"/>
    <circle cx="326.403" cy="215.595" r="10.5991" fill="white"/>
    <path d="M331.542 211.741L324.476 218.807L321.264 215.595" stroke="#75C9C8" stroke-width="3" stroke-linecap="round" stroke-linejoin="round"/>
    <defs>
        <clipPath id="clip0">
            <rect width="151.76" height="310.746" fill="white" transform="translate(533.24 95.1509)"/>
        </clipPath>
        <clipPath id="clip1">
            <rect width="227.639" height="185.484" fill="white" transform="translate(48.0067 184.279) rotate(15)"/>
        </clipPath>
        <clipPath id="clip2">
            <rect width="28.9066" height="28.9066" fill="white" transform="translate(322.79 8.43109)"/>
        </clipPath>
    </defs>
</svg>
