<svg width="100" height="100" viewBox="0 0 100 100" fill="none" xmlns="http://www.w3.org/2000/svg">
<path d="M10.4168 31.2502C9.26631 31.2502 8.3335 30.3174 8.3335 29.1668V10.4168C8.3335 9.26631 9.26631 8.3335 10.4168 8.3335H29.1668C30.3174 8.3335 31.2502 9.26631 31.2502 10.4168C31.2502 11.5674 30.3174 12.5002 29.1668 12.5002H12.5002V29.1668C12.5002 30.3174 11.5674 31.2502 10.4168 31.2502Z" fill="#E2E8F0"/>
<path d="M89.5833 31.2502C88.4328 31.2502 87.5 30.3174 87.5 29.1668V12.5002H70.8333C69.6828 12.5002 68.75 11.5674 68.75 10.4168C68.75 9.26631 69.6828 8.3335 70.8333 8.3335H89.5833C90.7339 8.3335 91.6667 9.26631 91.6667 10.4168V29.1668C91.6667 30.3174 90.7339 31.2502 89.5833 31.2502Z" fill="#E2E8F0"/>
<path d="M89.5833 91.6667H70.8333C69.6828 91.6667 68.75 90.7349 68.75 89.5833C68.75 88.4318 69.6828 87.5 70.8333 87.5H87.5V70.8333C87.5 69.6818 88.4328 68.75 89.5833 68.75C90.7339 68.75 91.6667 69.6818 91.6667 70.8333V89.5833C91.6667 90.7349 90.7339 91.6667 89.5833 91.6667Z" fill="#E2E8F0"/>
<path d="M29.1668 91.6667H10.4168C9.26631 91.6667 8.3335 90.7349 8.3335 89.5833V70.8333C8.3335 69.6818 9.26631 68.75 10.4168 68.75C11.5674 68.75 12.5002 69.6818 12.5002 70.8333V87.5H29.1668C30.3174 87.5 31.2502 88.4318 31.2502 89.5833C31.2502 90.7349 30.3174 91.6667 29.1668 91.6667Z" fill="#E2E8F0"/>
<path d="M95.8335 52.0833C96.984 52.0833 97.9168 51.1505 97.9168 50C97.9168 48.8495 96.984 47.9167 95.8335 47.9167H81.2502V20.8333C81.2502 19.6828 80.3173 18.75 79.1668 18.75H20.8335C19.683 18.75 18.7502 19.6828 18.7502 20.8333V47.9167H4.16683C3.01631 47.9167 2.0835 48.8495 2.0835 50C2.0835 51.1505 3.01631 52.0833 4.16683 52.0833H95.8335Z" fill="#E2E8F0"/>
<path d="M18.75 56.25V79.1667C18.75 80.3182 19.6828 81.25 20.8333 81.25H79.1667C80.3172 81.25 81.25 80.3182 81.25 79.1667V56.25H18.75Z" fill="#E2E8F0"/>
</svg>
