<svg width="586" height="489" viewBox="0 0 586 489" fill="none" xmlns="http://www.w3.org/2000/svg">
    <path opacity="0.1" d="M516.865 488.816C549.928 488.816 576.731 486.171 576.731 482.908C576.731 479.645 549.928 477 516.865 477C483.803 477 457 479.645 457 482.908C457 486.171 483.803 488.816 516.865 488.816Z" fill="#4E73B6"/>
    <path opacity="0.1" d="M256.556 7.15294C282.923 -2.65885 315.021 5.77964 342.432 18.0868C428.524 56.7495 491.243 130.142 541.075 204.914C559.118 231.988 576.255 260.255 583.038 290.479C596.849 351.997 560.828 415.683 499.567 438.001C478.735 445.598 455.847 448.713 432.925 450.448C392.164 453.54 349.962 452.313 309.528 440.865C280.693 432.683 253.416 419.523 227.254 404.983C154.191 364.357 87.4667 311.599 39.4213 247.153C18.3493 218.887 0.522781 187.02 0.0091145 154.406C-0.504552 121.791 20.7251 89.0192 55.6544 83.4734C70.0954 81.1826 85.3711 83.5669 100.273 86.0213C122.215 89.6386 144.454 93.4429 166.145 91.8651C188.554 90.223 217.699 81.4572 221.785 60.0396C226.11 37.0441 230.225 16.953 256.556 7.15294Z" fill="#BFBADA"/>
    <path d="M365.477 235.325H325.102V195.494H365.506L365.477 235.325ZM364.893 175.268H325.685C325.685 113.37 384.453 116.988 384.453 77.8282C384.453 56.2587 366.819 38.9785 345.275 38.9785C323.73 38.9785 306.102 57.6086 306.102 78.4418H266.923C266.905 68.1357 268.92 57.9275 272.851 48.4026C276.782 38.8776 282.553 30.2232 289.832 22.9357C297.111 15.6482 305.756 9.87087 315.27 5.93508C324.784 1.99928 334.98 -0.0175892 345.275 0.000115559C388.551 0.000115559 423.626 34.5664 423.626 77.8282C423.626 126.794 364.864 132.369 364.864 175.268H364.893Z" fill="#4E73B6"/>
    <path opacity="0.1" d="M164.102 223.462H153.689V213.166H164.102V223.462ZM163.945 207.976H153.847C153.847 192.023 168.994 192.952 168.994 182.848C168.989 181.526 168.723 180.218 168.213 178.998C167.702 177.779 166.957 176.673 166.019 175.742C165.081 174.811 163.969 174.075 162.747 173.574C161.525 173.074 160.216 172.819 158.896 172.826C156.229 172.887 153.69 173.981 151.811 175.877C149.933 177.773 148.861 180.324 148.821 182.994H138.723C138.79 177.688 140.937 172.621 144.701 168.886C148.465 165.15 153.544 163.045 158.844 163.024C164.145 163.004 169.24 165.069 173.034 168.775C176.827 172.481 179.013 177.531 179.121 182.836C179.092 195.459 163.945 196.896 163.945 207.953V207.976Z" fill="#4E73B6"/>
    <path opacity="0.1" d="M242.95 294.997H232.537V284.729H242.95V294.997ZM242.798 279.516H232.7C232.7 263.557 247.847 264.492 247.847 254.388C247.842 253.066 247.576 251.758 247.066 250.54C246.555 249.321 245.81 248.214 244.872 247.284C243.934 246.354 242.822 245.618 241.6 245.118C240.378 244.618 239.069 244.365 237.749 244.372C235.071 244.42 232.517 245.509 230.627 247.409C228.737 249.309 227.659 251.87 227.622 254.552H217.523C217.59 249.246 219.737 244.179 223.501 240.443C227.266 236.708 232.345 234.603 237.645 234.582C242.945 234.561 248.041 236.627 251.834 240.333C255.627 244.039 257.814 249.089 257.922 254.394C257.94 267.016 242.798 268.46 242.798 279.516Z" fill="#4E73B6"/>
    <path opacity="0.1" d="M290.896 168.361H283.349V160.933H290.896V168.361ZM290.785 157.135H283.466C283.466 145.576 294.445 146.248 294.445 138.931C294.441 137.974 294.248 137.026 293.877 136.143C293.507 135.26 292.967 134.459 292.287 133.785C291.607 133.111 290.801 132.577 289.916 132.215C289.03 131.853 288.082 131.669 287.125 131.673C285.188 131.713 283.342 132.504 281.977 133.88C280.611 135.255 279.833 137.109 279.806 139.048H272.486C272.47 135.161 273.998 131.427 276.733 128.668C279.467 125.908 283.184 124.349 287.067 124.333C290.95 124.318 294.679 125.847 297.436 128.585C300.192 131.323 301.75 135.044 301.765 138.931C301.753 148.077 290.785 149.123 290.785 157.135Z" fill="#4E73B6"/>
    <path opacity="0.1" d="M419.803 178.845H415.536V174.637H419.803V178.845ZM419.739 172.504H415.577C415.577 165.971 421.782 166.351 421.782 162.213C421.782 161.672 421.675 161.136 421.466 160.637C421.258 160.137 420.953 159.684 420.569 159.304C420.184 158.924 419.728 158.623 419.227 158.42C418.726 158.218 418.19 158.116 417.649 158.122C416.555 158.145 415.511 158.592 414.74 159.369C413.968 160.146 413.527 161.193 413.511 162.289H409.372C409.42 160.13 410.309 158.074 411.849 156.561C413.388 155.048 415.457 154.197 417.615 154.188C419.772 154.18 421.848 155.015 423.399 156.516C424.951 158.018 425.855 160.066 425.92 162.225C425.944 167.362 419.739 167.975 419.739 172.504Z" fill="#4E73B6"/>
    <g clip-path="url(#clip0)">
        <path d="M488.13 238.8C486.381 247.131 473.675 350.476 477.829 375.145C481.984 399.815 549.726 451.549 552.692 452.454C556.149 449.92 561.237 441.617 561.237 441.617C561.237 441.617 511.566 384.16 510.639 381.855C509.713 379.549 521.5 246.441 521.5 246.441L488.13 238.8Z" fill="#1F161E"/>
        <path d="M569.028 257.63L518.348 464.022H501.272L518.576 248.712L569.028 257.63Z" fill="#BEB1D7"/>
        <path d="M533.031 139.458C540.027 139.458 576.522 140.639 583.117 153.464C589.712 166.289 583.497 225.567 579.398 227.866C577.186 229.102 576.584 227.901 575.941 230.413C575.298 232.926 569.028 257.63 569.028 257.63C565.046 257.74 506.989 249.008 488.144 238.8C488.255 235.963 489.167 228.584 489.167 228.018C486.665 229.039 483.637 229.253 482.8 228.018C475.451 216.898 486.416 158.924 494.276 147.258C497.629 142.254 521.804 139.493 533.031 139.458Z" fill="#FBDC8E"/>
        <path d="M557.062 229.502C558.776 229.502 573.536 239.856 572.271 244.943C573.307 240.857 576.57 228.232 576.57 228.232C575.167 228.453 558.285 229.502 557.062 229.502Z" fill="#1F161E"/>
        <path d="M542.067 146.223C542.067 148.473 524.293 148.473 524.293 146.223V123.445H542.067V146.223Z" fill="#F8CDBA"/>
        <path d="M531.863 128.835C533.245 128.835 542.067 132.728 542.067 134.896V123.445C539.868 123.445 531.863 128.835 531.863 128.835Z" fill="#1F161E"/>
        <path d="M529.436 130.499C538.985 130.499 546.726 122.77 546.726 113.236C546.726 103.701 538.985 95.9724 529.436 95.9724C519.887 95.9724 512.146 103.701 512.146 113.236C512.146 122.77 519.887 130.499 529.436 130.499Z" fill="#F8CDBA"/>
        <path d="M523.588 88C514.711 88 509.174 93.5634 509.174 100.694C509.174 106.623 510.619 109.978 512.312 110.827C513.384 105.07 515.714 102.406 517.642 101.26C519.136 102.406 521.707 105.18 525.136 106.036C528.565 106.892 537.49 106.727 544.701 111.959C547.051 109.819 549.408 107.037 549.408 103.758C549.408 100.48 547.957 96.3659 539.412 93.9914C533.778 92.4245 532.997 88 523.588 88Z" fill="#1F161E"/>
        <path d="M513.28 118.364C514.953 118.364 516.308 117.66 516.308 116.79C516.308 115.921 514.953 115.217 513.28 115.217C511.608 115.217 510.252 115.921 510.252 116.79C510.252 117.66 511.608 118.364 513.28 118.364Z" fill="#FA9E9F"/>
        <path d="M532.326 118.364C533.999 118.364 535.354 117.66 535.354 116.79C535.354 115.921 533.999 115.217 532.326 115.217C530.654 115.217 529.298 115.921 529.298 116.79C529.298 117.66 530.654 118.364 532.326 118.364Z" fill="#FA9E9F"/>
        <path d="M520.678 113.539C520.111 114.347 517.221 117.736 520.27 119.103" stroke="#1F161E" stroke-miterlimit="10" stroke-linecap="round"/>
        <path d="M526.374 123.051C527.28 123.051 528.69 121.919 529.43 120.904" stroke="#1F161E" stroke-miterlimit="10" stroke-linecap="round"/>
        <path d="M545.42 119.213C547.626 119.213 549.415 117.427 549.415 115.224C549.415 113.02 547.626 111.234 545.42 111.234C543.213 111.234 541.424 113.02 541.424 115.224C541.424 117.427 543.213 119.213 545.42 119.213Z" fill="#F8CDBA"/>
        <path d="M557.462 173.426C557.151 177.236 555.934 196.066 556.391 198.544C550.591 200.56 497.456 225.712 488.296 228.453" stroke="#1F161E" stroke-miterlimit="10" stroke-linecap="round"/>
        <path d="M495.776 167.483C494.559 171.748 490.439 191.11 493.336 200.104" stroke="#1F161E" stroke-miterlimit="10" stroke-linecap="round"/>
        <path d="M509.333 219.659C512.098 221.599 538.61 233.312 575.25 228.894" stroke="#1F161E" stroke-miterlimit="10" stroke-linecap="round"/>
        <path d="M506.803 200.104C508.579 200.387 502.786 195.769 499.502 197.488C496.219 199.207 491.794 206.986 492.7 208.794C492.822 209.121 493.016 209.417 493.267 209.659C493.519 209.901 493.822 210.084 494.153 210.194C494.485 210.304 494.837 210.338 495.184 210.294C495.53 210.25 495.863 210.129 496.156 209.94C497.048 209.36 503.685 199.607 506.803 200.104Z" fill="#F8CDBA"/>
        <path d="M560.65 442.5C561.597 443.191 569.996 448.864 570.065 452.44C570.134 456.015 562.26 467.867 560.65 468.205C559.039 468.543 557.926 467.204 557.926 464.809C557.926 462.414 560.926 458.217 560.525 456.354C560.124 454.49 556.246 451.08 554.255 451.018" fill="#1F161E"/>
        <path d="M516.73 464.022C516.73 465.665 517.684 475.978 515.769 476.937C513.854 477.896 492.81 478.462 491.856 477.51C490.902 476.557 490.322 474.549 491.165 473.976C492.008 473.403 500.152 471.774 501.251 471.015C502.351 470.255 503.885 466.183 503.325 464.022" fill="#1F161E"/>
    </g>
    <defs>
        <clipPath id="clip0">
            <rect width="109" height="390" fill="white" transform="translate(477 88)"/>
        </clipPath>
    </defs>
</svg>
