<svg width="197" height="171" viewBox="0 0 197 171" fill="none" xmlns="http://www.w3.org/2000/svg">
    <path d="M180.489 31.465C189.178 31.465 196.221 24.4213 196.221 15.7325C196.221 7.04368 189.178 0 180.489 0C171.801 0 164.758 7.04368 164.758 15.7325C164.758 24.4213 171.801 31.465 180.489 31.465Z" fill="#4E73B6"/>
    <path d="M188.832 89.1509C188.266 89.1509 187.713 88.9831 187.243 88.6688C186.772 88.3545 186.406 87.9077 186.189 87.385C185.973 86.8624 185.916 86.2872 186.026 85.7323C186.137 85.1775 186.409 84.6678 186.809 84.2677C187.209 83.8677 187.719 83.5953 188.274 83.4849C188.829 83.3745 189.404 83.4312 189.926 83.6477C190.449 83.8642 190.896 84.2308 191.21 84.7012C191.524 85.1716 191.692 85.7246 191.692 86.2904C191.691 87.0488 191.39 87.7759 190.853 88.3121C190.317 88.8484 189.59 89.15 188.832 89.1509ZM188.832 83.9067C188.36 83.9067 187.899 84.0465 187.507 84.3084C187.116 84.5703 186.81 84.9426 186.63 85.3782C186.449 85.8137 186.402 86.293 186.494 86.7554C186.586 87.2178 186.813 87.6426 187.146 87.9759C187.48 88.3093 187.904 88.5363 188.367 88.6283C188.829 88.7203 189.308 88.6731 189.744 88.4927C190.179 88.3122 190.552 88.0067 190.814 87.6147C191.076 87.2227 191.215 86.7618 191.215 86.2904C191.215 85.6584 190.963 85.0525 190.516 84.6056C190.07 84.1588 189.464 83.9074 188.832 83.9067Z" fill="#3F3D56"/>
    <path d="M28.6534 49.8196H22.4561V43.6219H28.6534V49.8196ZM22.9328 49.3428H28.1767V44.0987H22.9328V49.3428Z" fill="#3F3D56"/>
    <path d="M120.899 7.1512H114.702V0.953552H120.899V7.1512ZM115.178 6.67446H120.422V1.43029H115.178V6.67446Z" fill="#3F3D56"/>
    <path d="M95.0368 38.7639H50.7017V74.7579H95.0368V38.7639Z" fill="#4E73B6"/>
    <path d="M173.457 85.7231H50.7017V89.537H173.457V85.7231Z" fill="#F2F2F2"/>
    <path d="M92.1766 72.851H47.3647V36.3802H92.1766V72.851ZM47.8415 72.3743H91.6999V36.857H47.8415V72.3743Z" fill="#3F3D56"/>
    <path d="M155.581 48.6564H112.676V52.4703H155.581V48.6564Z" fill="#86A1D0"/>
    <path d="M173.458 58.9063H112.676V62.7203H173.458V58.9063Z" fill="#86A1D0" fill-opacity="0.3"/>
    <path d="M152.72 50.5634H109.339V46.2727H152.72V50.5634ZM109.815 50.0866H152.244V46.7494H109.815V50.0866Z" fill="#3F3D56"/>
    <path d="M170.597 60.8133H109.339V56.5226H170.597V60.8133ZM109.815 60.3366H170.121V56.9994H109.815V60.3366Z" fill="#3F3D56"/>
    <path d="M170.597 87.63H47.3647V83.3394H170.597V87.63ZM47.8415 87.1533H170.121V83.8161H47.8415V87.1533Z" fill="#3F3D56"/>
    <path d="M173.457 97.6416H50.7017V101.456H173.457V97.6416Z" fill="#F2F2F2"/>
    <path d="M170.597 99.5486H47.3647V95.2579H170.597V99.5486ZM47.8415 99.0719H170.121V95.7347H47.8415V99.0719Z" fill="#3F3D56"/>
    <path d="M173.457 109.56H50.7017V113.374H173.457V109.56Z" fill="#F2F2F2"/>
    <path d="M170.597 111.467H47.3647V107.176H170.597V111.467ZM47.8415 110.99H170.121V107.653H47.8415V110.99Z" fill="#3F3D56"/>
    <path d="M173.457 121.479H50.7017V125.293H173.457V121.479Z" fill="#F2F2F2"/>
    <path d="M170.597 123.386H47.3647V119.095H170.597V123.386ZM47.8415 122.909H170.121V119.572H47.8415V122.909Z" fill="#3F3D56"/>
    <path d="M173.457 133.397H50.7017V137.211H173.457V133.397Z" fill="#F2F2F2"/>
    <path d="M170.597 135.304H47.3647V131.014H170.597V135.304ZM47.8415 134.828H170.121V131.49H47.8415V134.828Z" fill="#3F3D56"/>
    <path d="M173.457 145.316H50.7017V149.13H173.457V145.316Z" fill="#F2F2F2"/>
    <path d="M170.597 147.223H47.3647V142.932H170.597V147.223ZM47.8415 146.746H170.121V143.409H47.8415V146.746Z" fill="#3F3D56"/>
    <path d="M180.847 170.229H40.333V15.4035H180.847V170.229ZM40.8097 169.752H180.37V15.8802H40.8097V169.752Z" fill="#3F3D56"/>
    <circle cx="4.99023" cy="20.5846" r="4.99023" fill="#4E73B6"/>
</svg>
